<?xml version="1.0" encoding="UTF-8" standalone="no"?>
<!-- Created with Inkscape (http://www.inkscape.org/) -->

<svg
   xmlns:dc="http://purl.org/dc/elements/1.1/"
   xmlns:cc="http://creativecommons.org/ns#"
   xmlns:rdf="http://www.w3.org/1999/02/22-rdf-syntax-ns#"
   xmlns:svg="http://www.w3.org/2000/svg"
   xmlns="http://www.w3.org/2000/svg"
   xmlns:sodipodi="http://sodipodi.sourceforge.net/DTD/sodipodi-0.dtd"
   xmlns:inkscape="http://www.inkscape.org/namespaces/inkscape"
   height="671.04401"
   id="svg1291"
   inkscape:version="0.48.4 r9939"
   sodipodi:docname="baroque_hand.svg"
   sodipodi:version="0.32"
   width="96.634384"
   version="1.1">
  <metadata
     id="metadata3">
    <rdf:RDF>
      <cc:Work
         rdf:about="">
        <dc:title>Minute Hand</dc:title>
        <dc:description>Minute hand</dc:description>
        <dc:subject>
          <rdf:Bag>
            <rdf:li>clock</rdf:li>
          </rdf:Bag>
        </dc:subject>
        <dc:publisher>
          <cc:Agent
             rdf:about="http://www.openclipart.org">
            <dc:title>Mitchell Johnson</dc:title>
          </cc:Agent>
        </dc:publisher>
        <dc:creator>
          <cc:Agent>
            <dc:title>Mitchell Johnson</dc:title>
          </cc:Agent>
        </dc:creator>
        <dc:rights>
          <cc:Agent>
            <dc:title>Mitchell Johnson</dc:title>
          </cc:Agent>
        </dc:rights>
        <dc:date />
        <dc:format>image/svg+xml</dc:format>
        <dc:type
           rdf:resource="http://purl.org/dc/dcmitype/StillImage" />
        <cc:license
           rdf:resource="http://web.resource.org/cc/PublicDomain" />
        <dc:language>en</dc:language>
      </cc:Work>
      <cc:License
         rdf:about="http://web.resource.org/cc/PublicDomain">
        <cc:permits
           rdf:resource="http://web.resource.org/cc/Reproduction" />
        <cc:permits
           rdf:resource="http://web.resource.org/cc/Distribution" />
        <cc:permits
           rdf:resource="http://web.resource.org/cc/DerivativeWorks" />
      </cc:License>
    </rdf:RDF>
  </metadata>
  <defs
     id="defs3" />
  <sodipodi:namedview
     bordercolor="#666666"
     borderopacity="1.0"
     id="base"
     inkscape:current-layer="layer1"
     inkscape:cx="572.54518"
     inkscape:cy="405.23401"
     inkscape:document-units="mm"
     inkscape:pageopacity="0.0"
     inkscape:pageshadow="2"
     inkscape:window-height="814"
     inkscape:window-width="1088"
     inkscape:window-x="329"
     inkscape:window-y="52"
     inkscape:zoom="0.74587302"
     pagecolor="#ffffff"
     showgrid="false"
     units="mm"
     fit-margin-top="0"
     fit-margin-left="0"
     fit-margin-right="0"
     fit-margin-bottom="0"
     inkscape:window-maximized="0" />
  <g
     id="layer1"
     inkscape:groupmode="layer"
     inkscape:label="Layer 1"
     transform="translate(46.364089,-106.23722)">
    <path
       d="M 1.9199142,107.6142 C 0.80282419,170.33867 -44.327806,176.6245 -44.955526,203.61788 C -45.582766,230.58942 -31.484956,232.47101 -26.153366,232.47098 C -20.785006,232.47098 -9.5196758,228.53665 -9.8639358,216.78807 C -10.189856,205.66622 -14.254676,202.35791 -9.8639358,185.42223 C -14.881916,196.08543 -21.139236,201.15035 -28.666096,202.40483 C -21.766396,206.16835 -18.322266,209.88088 -18.008646,211.7626 C -17.662806,213.83781 -18.605696,223.0266 -26.759886,223.02657 C -35.541326,223.02657 -38.378896,214.63614 -36.810806,202.40483 C -35.163566,189.55624 -4.8554658,168.52823 -1.7192158,155.3561 C -1.7192158,181.7004 -3.5997158,258.83651 -3.4521358,256.21196 C -5.6925658,337.16883 -12.809896,388.46757 -12.809896,461.30285 C -12.809896,533.80276 -12.770516,601.70785 -5.7049258,710.66982 C -20.329326,714.22388 -31.438766,726.75277 -31.438766,742.46887 C -31.438746,760.92364 -16.448216,775.91427 2.0065642,775.9142 C 20.461354,775.91417 35.365234,760.92371 35.365234,742.46887 C 35.365264,726.7231 24.278944,714.19438 9.6313942,710.66982 C 16.696994,601.70785 16.736384,533.80273 16.736364,461.30285 C 16.736364,388.46757 9.5324242,337.16881 7.2919542,256.21196 C 7.4395542,258.83654 5.5590642,181.70037 5.5590442,155.3561 C 8.6952642,168.52826 39.090044,189.55626 40.737284,202.40483 C 42.305404,214.63611 39.467794,223.0266 30.686364,223.02657 C 22.532164,223.02657 21.502664,213.83781 21.848474,211.7626 C 22.162084,209.88088 25.606184,206.16835 32.505924,202.40483 C 24.979014,201.15035 18.721704,196.08545 13.703764,185.42223 C 18.094474,202.35787 14.029664,205.66624 13.703764,216.78807 C 13.359474,228.53662 24.624864,232.47101 29.993194,232.47098 C 35.324784,232.47098 49.509204,230.58944 48.881994,203.61788 C 48.254244,176.62448 3.0369842,170.3387 1.9199142,107.6142 z M 2.0065642,723.40677 C 12.552214,723.40677 21.068654,731.92327 21.068654,742.46887 C 21.068624,753.01446 12.552124,761.61762 2.0065642,761.61762 C -8.5390058,761.61756 -17.142186,753.01446 -17.142186,742.46887 C -17.142166,731.9233 -8.5390358,723.40677 2.0065642,723.40677 z"
       id="hourhand"
       style="color:#000000;fill:#000000;fill-opacity:1;fill-rule:evenodd;stroke:#000000;stroke-width:2.75083733;stroke-linecap:butt;stroke-linejoin:round;stroke-miterlimit:4;stroke-opacity:1;stroke-dashoffset:0;marker:none;visibility:visible;display:inline;overflow:visible"
       inkscape:connector-curvature="0"
       inkscape:label="#path5216" />
  </g>
</svg>
