<?xml version="1.0" encoding="UTF-8" standalone="no"?>
<svg
   xmlns:dc="http://purl.org/dc/elements/1.1/"
   xmlns:cc="http://creativecommons.org/ns#"
   xmlns:rdf="http://www.w3.org/1999/02/22-rdf-syntax-ns#"
   xmlns:svg="http://www.w3.org/2000/svg"
   xmlns="http://www.w3.org/2000/svg"
   xmlns:sodipodi="http://sodipodi.sourceforge.net/DTD/sodipodi-0.dtd"
   xmlns:inkscape="http://www.inkscape.org/namespaces/inkscape"
   width="132.40491"
   height="87.67691"
   id="svg1325"
   sodipodi:version="0.32"
   inkscape:version="0.48.4 r9939"
   sodipodi:docname="fontys-icona.svg"
   version="1.0"
   inkscape:output_extension="org.inkscape.output.svg.inkscape"
   sodipodi:modified="true">
  <metadata
     id="metadata1378">
    <rdf:RDF>
      <cc:Work
         rdf:about="">
        <dc:format>image/svg+xml</dc:format>
        <dc:type
           rdf:resource="http://purl.org/dc/dcmitype/StillImage" />
        <dc:title />
      </cc:Work>
    </rdf:RDF>
  </metadata>
  <sodipodi:namedview
     inkscape:cy="43.838455"
     inkscape:cx="66.202457"
     inkscape:zoom="8.8164603"
     guidetolerance="10.0"
     gridtolerance="10.0"
     objecttolerance="10.0"
     inkscape:window-height="920"
     inkscape:window-width="1614"
     inkscape:pageshadow="2"
     inkscape:pageopacity="0.0"
     borderopacity="1.0"
     bordercolor="#666666"
     pagecolor="#ffffff"
     id="base"
     inkscape:window-x="288"
     inkscape:window-y="55"
     inkscape:current-layer="svg1325"
     borderlayer="false"
     showgrid="false"
     fit-margin-top="0"
     fit-margin-left="0"
     fit-margin-right="0"
     fit-margin-bottom="0"
     inkscape:window-maximized="0" />
  <defs
     id="defs1327">
    <marker
       id="ArrowEnd"
       viewBox="0 0 10 10"
       refX="0"
       refY="5"
       markerUnits="strokeWidth"
       markerWidth="4"
       markerHeight="3"
       orient="auto">
      <path
         d="M 0,0 10,5 0,10 0,0 z"
         id="path1330"
         inkscape:connector-curvature="0" />
    </marker>
    <marker
       id="ArrowStart"
       viewBox="0 0 10 10"
       refX="10"
       refY="5"
       markerUnits="strokeWidth"
       markerWidth="4"
       markerHeight="3"
       orient="auto">
      <path
         d="M 10,0 0,5 10,10 10,0 z"
         id="path1333"
         inkscape:connector-curvature="0" />
    </marker>
  </defs>
  <g
     id="g2990">
    <path
       inkscape:label="#path1359"
       style="fill:#64307b;fill-opacity:1;fill-rule:evenodd;stroke:none"
       d="M 38.80651,74.245518 C 38.80651,74.245518 62.71353,67.325921 82.12168,67.82181 C 102.53792,68.331074 121.81883,75.123436 125.72069,76.271483 C 128.42197,77.060989 131.50496,76.640462 132.24553,74.040312 C 132.60114,72.754592 132.80341,69.746639 127.77275,65.310071 C 113.30717,52.618923 96.02612,48.182355 96.02612,48.182355 C 69.83866,20.898557 47.0376,17.228332 47.0376,17.228332 C 54.71081,25.423536 58.43324,47.190253 55.7189,48.106993 C 12.41351,61.372327 0,87.67691 0,87.67691 C 3.17433,85.037937 16.67097,72.562435 47.14199,67.401283 C 42.81928,70.905125 38.80651,74.268682 38.80651,74.268682"
       id="body"
       inkscape:connector-curvature="0" />
    <path
       inkscape:label="#path1361"
       style="fill:#64307b;fill-opacity:1;fill-rule:evenodd;stroke:none"
       d="M 70.11923,21.81533 C 83.85729,28.685958 95.83364,45.572091 95.83364,45.572091 C 92.42115,28.940427 69.27753,-2.3461899 69.63313,0.13975506 C 71.25129,11.329841 70.11923,21.81533 70.11923,21.81533"
       id="topfin"
       inkscape:connector-curvature="0" />
  </g>
</svg>
