<?xml version="1.0" encoding="UTF-8" standalone="no"?>
<svg
   xmlns:dc="http://purl.org/dc/elements/1.1/"
   xmlns:cc="http://creativecommons.org/ns#"
   xmlns:rdf="http://www.w3.org/1999/02/22-rdf-syntax-ns#"
   xmlns:svg="http://www.w3.org/2000/svg"
   xmlns="http://www.w3.org/2000/svg"
   xmlns:sodipodi="http://sodipodi.sourceforge.net/DTD/sodipodi-0.dtd"
   xmlns:inkscape="http://www.inkscape.org/namespaces/inkscape"
   fill-opacity="0"
   color-rendering="auto"
   color-interpolation="auto"
   text-rendering="auto"
   stroke="rgb(0,0,0)"
   stroke-linecap="square"
   width="1070"
   stroke-miterlimit="10"
   shape-rendering="auto"
   stroke-opacity="0"
   fill="rgb(0,0,0)"
   stroke-dasharray="none"
   font-weight="normal"
   stroke-width="1"
   height="363"
   font-family="'Dialog'"
   font-style="normal"
   stroke-linejoin="miter"
   font-size="12"
   stroke-dashoffset="0"
   image-rendering="auto"
   id="svg2"
   version="1.1"
   inkscape:version="0.48.4 r9939"
   sodipodi:docname="clock_observers.svg">
  <metadata
     id="metadata545">
    <rdf:RDF>
      <cc:Work
         rdf:about="">
        <dc:format>image/svg+xml</dc:format>
        <dc:type
           rdf:resource="http://purl.org/dc/dcmitype/StillImage" />
      </cc:Work>
    </rdf:RDF>
  </metadata>
  <sodipodi:namedview
     pagecolor="#ffffff"
     bordercolor="#666666"
     borderopacity="1"
     objecttolerance="10"
     gridtolerance="10"
     guidetolerance="10"
     inkscape:pageopacity="0"
     inkscape:pageshadow="2"
     inkscape:window-width="640"
     inkscape:window-height="480"
     id="namedview543"
     showgrid="false"
     inkscape:zoom="0.2728972"
     inkscape:cx="535"
     inkscape:cy="181.5"
     inkscape:window-x="41"
     inkscape:window-y="24"
     inkscape:window-maximized="0"
     inkscape:current-layer="svg2" />
  <!--Generated by the Batik Graphics2D SVG Generator-->
  <defs
     id="genericDefs">
    <defs
       id="defs1">
      <clipPath
         id="clipPath1"
         clipPathUnits="userSpaceOnUse">
        <path
           id="path9"
           d="M-7 -7 L260 -7 L260 121 L-7 121 L-7 -7 Z" />
      </clipPath>
      <clipPath
         id="clipPath2"
         clipPathUnits="userSpaceOnUse">
        <path
           id="path12"
           d="M0 0 L0 96 L249 96 L249 0 Z" />
      </clipPath>
      <clipPath
         id="clipPath3"
         clipPathUnits="userSpaceOnUse">
        <path
           id="path15"
           d="M0 0 L0 14 L249 14 L249 0 Z" />
      </clipPath>
      <clipPath
         id="clipPath4"
         clipPathUnits="userSpaceOnUse">
        <path
           id="path18"
           d="M-7 -7 L268 -7 L268 163 L-7 163 L-7 -7 Z" />
      </clipPath>
      <clipPath
         id="clipPath5"
         clipPathUnits="userSpaceOnUse">
        <path
           id="path21"
           d="M0 0 L0 138 L257 138 L257 0 Z" />
      </clipPath>
      <clipPath
         id="clipPath6"
         clipPathUnits="userSpaceOnUse">
        <path
           id="path24"
           d="M0 0 L0 14 L257 14 L257 0 Z" />
      </clipPath>
      <clipPath
         id="clipPath7"
         clipPathUnits="userSpaceOnUse">
        <path
           id="path27"
           d="M-7 -7 L254 -7 L254 177 L-7 177 L-7 -7 Z" />
      </clipPath>
      <clipPath
         id="clipPath8"
         clipPathUnits="userSpaceOnUse">
        <path
           id="path30"
           d="M0 0 L0 152 L243 152 L243 0 Z" />
      </clipPath>
      <clipPath
         id="clipPath9"
         clipPathUnits="userSpaceOnUse">
        <path
           id="path33"
           d="M0 0 L0 14 L243 14 L243 0 Z" />
      </clipPath>
      <clipPath
         id="clipPath10"
         clipPathUnits="userSpaceOnUse">
        <path
           id="path36"
           d="M-7 -7 L198 -7 L198 75 L-7 75 L-7 -7 Z" />
      </clipPath>
      <clipPath
         id="clipPath11"
         clipPathUnits="userSpaceOnUse">
        <path
           id="path39"
           d="M0 0 L0 50 L187 50 L187 0 Z" />
      </clipPath>
      <clipPath
         id="clipPath12"
         clipPathUnits="userSpaceOnUse">
        <path
           id="path42"
           d="M0 0 L0 14 L187 14 L187 0 Z" />
      </clipPath>
      <clipPath
         id="clipPath13"
         clipPathUnits="userSpaceOnUse">
        <path
           id="path45"
           d="M-7 -7 L223 -7 L223 51 L-7 51 L-7 -7 Z" />
      </clipPath>
      <clipPath
         id="clipPath14"
         clipPathUnits="userSpaceOnUse">
        <path
           id="path48"
           d="M0 0 L0 40 L212 40 L212 0 Z" />
      </clipPath>
      <clipPath
         id="clipPath15"
         clipPathUnits="userSpaceOnUse">
        <path
           id="path51"
           d="M-7 -7 L209 -7 L209 75 L-7 75 L-7 -7 Z" />
      </clipPath>
      <clipPath
         id="clipPath16"
         clipPathUnits="userSpaceOnUse">
        <path
           id="path54"
           d="M0 0 L0 22 L198 22 L198 0 Z" />
      </clipPath>
      <clipPath
         id="clipPath17"
         clipPathUnits="userSpaceOnUse">
        <path
           id="path57"
           d="M0 0 L0 42 L198 42 L198 0 Z" />
      </clipPath>
      <clipPath
         id="clipPath18"
         clipPathUnits="userSpaceOnUse">
        <path
           id="path60"
           d="M-7 -7 L311 -7 L311 82 L-7 82 L-7 -7 Z" />
      </clipPath>
      <clipPath
         id="clipPath19"
         clipPathUnits="userSpaceOnUse">
        <path
           id="path63"
           d="M0 0 L0 71 L285 71 L285 0 Z" />
      </clipPath>
      <clipPath
         id="clipPath20"
         clipPathUnits="userSpaceOnUse">
        <path
           id="path66"
           d="M-7 -7 L61 -7 L61 61 L-7 61 L-7 -7 Z" />
      </clipPath>
      <clipPath
         id="clipPath21"
         clipPathUnits="userSpaceOnUse">
        <path
           id="path69"
           d="M0 0 L0 50 L50 50 L50 0 Z" />
      </clipPath>
      <clipPath
         id="clipPath22"
         clipPathUnits="userSpaceOnUse">
        <path
           id="path72"
           d="M-7 -7 L57 -7 L57 57 L-7 57 L-7 -7 Z" />
      </clipPath>
      <clipPath
         id="clipPath23"
         clipPathUnits="userSpaceOnUse">
        <path
           id="path75"
           d="M0 0 L0 46 L46 46 L46 0 Z" />
      </clipPath>
      <clipPath
         id="clipPath24"
         clipPathUnits="userSpaceOnUse">
        <path
           id="path78"
           d="M-7 -7 L91 -7 L91 91 L-7 91 L-7 -7 Z" />
      </clipPath>
      <clipPath
         id="clipPath25"
         clipPathUnits="userSpaceOnUse">
        <path
           id="path81"
           d="M0 0 L0 80 L80 80 L80 0 Z" />
      </clipPath>
      <clipPath
         id="clipPath26"
         clipPathUnits="userSpaceOnUse">
        <path
           id="path84"
           d="M-7 -7 L67 -7 L67 67 L-7 67 L-7 -7 Z" />
      </clipPath>
      <clipPath
         id="clipPath27"
         clipPathUnits="userSpaceOnUse">
        <path
           id="path87"
           d="M0 0 L0 56 L56 56 L56 0 Z" />
      </clipPath>
      <clipPath
         id="clipPath28"
         clipPathUnits="userSpaceOnUse">
        <path
           id="path90"
           d="M-7 -7 L81 -7 L81 81 L-7 81 L-7 -7 Z" />
      </clipPath>
      <clipPath
         id="clipPath29"
         clipPathUnits="userSpaceOnUse">
        <path
           id="path93"
           d="M0 0 L0 70 L70 70 L70 0 Z" />
      </clipPath>
      <clipPath
         id="clipPath30"
         clipPathUnits="userSpaceOnUse">
        <path
           id="path96"
           d="M0 0 L104 0 L104 151 L0 151 L0 0 Z" />
      </clipPath>
      <clipPath
         id="clipPath31"
         clipPathUnits="userSpaceOnUse">
        <path
           id="path99"
           d="M0 0 L104 0 L104 134 L0 134 L0 0 Z" />
      </clipPath>
      <clipPath
         id="clipPath32"
         clipPathUnits="userSpaceOnUse">
        <path
           id="path102"
           d="M0 0 L104 0 L104 147 L0 147 L0 0 Z" />
      </clipPath>
      <clipPath
         id="clipPath33"
         clipPathUnits="userSpaceOnUse">
        <path
           id="path105"
           d="M0 0 L224 0 L224 104 L0 104 L0 0 Z" />
      </clipPath>
      <clipPath
         id="clipPath34"
         clipPathUnits="userSpaceOnUse">
        <path
           id="path108"
           d="M0 0 L216 0 L216 159 L0 159 L0 0 Z" />
      </clipPath>
      <clipPath
         id="clipPath35"
         clipPathUnits="userSpaceOnUse">
        <path
           id="path111"
           d="M0 0 L104 0 L104 140 L0 140 L0 0 Z" />
      </clipPath>
    </defs>
  </defs>
  <g
     style="fill:#ffffff;fill-opacity:1;stroke:#ffffff;stroke-opacity:1"
     id="g113"
     text-rendering="geometricPrecision">
    <rect
       style="stroke:none"
       id="rect115"
       y="0"
       height="363"
       width="1070"
       x="0" />
  </g>
  <g
     style="font-size:11px;font-weight:bold;fill:#ffffff;fill-opacity:1;stroke:#ffffff;stroke-opacity:1;font-family:sans-serif"
     id="g117"
     font-weight="bold"
     text-rendering="geometricPrecision"
     transform="translate(2,119)"
     font-size="11">
    <rect
       style="stroke:none"
       id="rect119"
       clip-path="url(#clipPath1)"
       y="0"
       height="110"
       width="249"
       x="0" />
  </g>
  <g
     style="font-size:11px;font-weight:bold;fill:#000000;fill-opacity:1;stroke:#000000;stroke-linecap:butt;stroke-linejoin:round;stroke-miterlimit:0;stroke-opacity:1;font-family:sans-serif"
     id="g121"
     stroke-miterlimit="0"
     font-weight="bold"
     text-rendering="geometricPrecision"
     transform="translate(2,119)"
     font-size="11">
    <rect
       style="fill:none"
       id="rect123"
       clip-path="url(#clipPath1)"
       y="0"
       height="110"
       width="249"
       x="0" />
    <line
       style="fill:none"
       id="line125"
       y1="14"
       x2="249"
       clip-path="url(#clipPath1)"
       x1="0"
       y2="14" />
  </g>
  <g
     style="font-size:11px;fill:#000000;fill-opacity:1;stroke:#000000;stroke-opacity:1;font-family:sans-serif"
     id="g127"
     text-rendering="geometricPrecision"
     transform="translate(2,133)"
     font-size="11">
    <text
       style="stroke:none"
       id="text129"
       clip-path="url(#clipPath2)"
       y="13"
       xml:space="preserve"
       x="2">~timer : Timer</text>
  </g>
  <g
     style="font-size:11px;fill:#000000;fill-opacity:1;stroke:#000000;stroke-opacity:1;font-family:sans-serif"
     id="g131"
     text-rendering="geometricPrecision"
     transform="translate(2,133)"
     font-size="11">
    <text
       style="stroke:none"
       id="text133"
       clip-path="url(#clipPath2)"
       y="27"
       xml:space="preserve"
       x="2">~time : ClockTime</text>
  </g>
  <g
     style="font-size:11px;fill:#000000;fill-opacity:1;stroke:#000000;stroke-opacity:1;font-family:sans-serif"
     id="g135"
     text-rendering="geometricPrecision"
     transform="translate(2,133)"
     font-size="11">
    <text
       style="stroke:none"
       id="text137"
       clip-path="url(#clipPath2)"
       y="41"
       xml:space="preserve"
       x="2">~alarmTime : ClockTime</text>
    <line
       style="fill:none;stroke-linecap:butt;stroke-linejoin:bevel;stroke-miterlimit:0"
       id="line139"
       stroke-miterlimit="0"
       y2="46"
       y1="46"
       x2="249"
       x1="0"
       clip-path="url(#clipPath2)" />
  </g>
  <g
     style="font-size:11px;fill:#000000;fill-opacity:1;stroke:#000000;stroke-opacity:1;font-family:sans-serif"
     id="g141"
     text-rendering="geometricPrecision"
     transform="translate(2,133)"
     font-size="11">
    <text
       style="stroke:none"
       id="text143"
       clip-path="url(#clipPath2)"
       y="59"
       xml:space="preserve"
       x="2">+main(args : String []) : void</text>
    <line
       style="fill:none"
       id="line145"
       y1="61"
       x2="166"
       clip-path="url(#clipPath2)"
       x1="2"
       y2="61" />
  </g>
  <g
     style="font-size:11px;fill:#000000;fill-opacity:1;stroke:#000000;stroke-opacity:1;font-family:sans-serif"
     id="g147"
     text-rendering="geometricPrecision"
     transform="translate(2,133)"
     font-size="11">
    <text
       style="stroke:none"
       id="text149"
       clip-path="url(#clipPath2)"
       y="73"
       xml:space="preserve"
       x="2">+AlarmClock()</text>
  </g>
  <g
     style="font-size:11px;fill:#000000;fill-opacity:1;stroke:#000000;stroke-opacity:1;font-family:sans-serif"
     id="g151"
     text-rendering="geometricPrecision"
     transform="translate(2,133)"
     font-size="11">
    <text
       style="stroke:none"
       id="text153"
       clip-path="url(#clipPath2)"
       y="87"
       xml:space="preserve"
       x="2">+update(o : Observable, arg : Object) : v...</text>
  </g>
  <g
     style="font-size:11px;font-weight:bold;fill:#000000;fill-opacity:1;stroke:#000000;stroke-opacity:1;font-family:sans-serif"
     id="g155"
     font-weight="bold"
     text-rendering="geometricPrecision"
     transform="translate(2,119)"
     font-size="11">
    <text
       style="stroke:none"
       id="text157"
       clip-path="url(#clipPath3)"
       y="11"
       xml:space="preserve"
       x="89">AlarmClock</text>
  </g>
  <g
     style="font-size:11px;font-weight:bold;fill:#ffffff;fill-opacity:1;stroke:#ffffff;stroke-opacity:1;font-family:sans-serif"
     id="g159"
     font-weight="bold"
     text-rendering="geometricPrecision"
     transform="translate(373,98)"
     font-size="11">
    <rect
       style="stroke:none"
       id="rect161"
       clip-path="url(#clipPath4)"
       y="0"
       height="152"
       width="257"
       x="0" />
  </g>
  <g
     style="font-size:11px;font-weight:bold;fill:#000000;fill-opacity:1;stroke:#000000;stroke-linecap:butt;stroke-linejoin:round;stroke-miterlimit:0;stroke-opacity:1;font-family:sans-serif"
     id="g163"
     stroke-miterlimit="0"
     font-weight="bold"
     text-rendering="geometricPrecision"
     transform="translate(373,98)"
     font-size="11">
    <rect
       style="fill:none"
       id="rect165"
       clip-path="url(#clipPath4)"
       y="0"
       height="152"
       width="257"
       x="0" />
    <line
       style="fill:none"
       id="line167"
       y1="14"
       x2="257"
       clip-path="url(#clipPath4)"
       x1="0"
       y2="14" />
  </g>
  <g
     style="font-size:11px;fill:#000000;fill-opacity:1;stroke:#000000;stroke-opacity:1;font-family:sans-serif"
     id="g169"
     text-rendering="geometricPrecision"
     transform="translate(373,112)"
     font-size="11">
    <text
       style="stroke:none"
       id="text171"
       clip-path="url(#clipPath5)"
       y="13"
       xml:space="preserve"
       x="2">-seconds : TimeElement</text>
  </g>
  <g
     style="font-size:11px;fill:#000000;fill-opacity:1;stroke:#000000;stroke-opacity:1;font-family:sans-serif"
     id="g173"
     text-rendering="geometricPrecision"
     transform="translate(373,112)"
     font-size="11">
    <text
       style="stroke:none"
       id="text175"
       clip-path="url(#clipPath5)"
       y="27"
       xml:space="preserve"
       x="2">-minutes : TimeElement</text>
  </g>
  <g
     style="font-size:11px;fill:#000000;fill-opacity:1;stroke:#000000;stroke-opacity:1;font-family:sans-serif"
     id="g177"
     text-rendering="geometricPrecision"
     transform="translate(373,112)"
     font-size="11">
    <text
       style="stroke:none"
       id="text179"
       clip-path="url(#clipPath5)"
       y="41"
       xml:space="preserve"
       x="2">-hours : TimeElement</text>
  </g>
  <g
     style="font-size:11px;fill:#000000;fill-opacity:1;stroke:#000000;stroke-opacity:1;font-family:sans-serif"
     id="g181"
     text-rendering="geometricPrecision"
     transform="translate(373,112)"
     font-size="11">
    <text
       style="stroke:none"
       id="text183"
       clip-path="url(#clipPath5)"
       y="55"
       xml:space="preserve"
       x="2">-days : TimeElement</text>
    <line
       style="fill:none;stroke-linecap:butt;stroke-linejoin:bevel;stroke-miterlimit:0"
       id="line185"
       stroke-miterlimit="0"
       y2="60"
       y1="60"
       x2="257"
       x1="0"
       clip-path="url(#clipPath5)" />
  </g>
  <g
     style="font-size:11px;fill:#000000;fill-opacity:1;stroke:#000000;stroke-opacity:1;font-family:sans-serif"
     id="g187"
     text-rendering="geometricPrecision"
     transform="translate(373,112)"
     font-size="11">
    <text
       style="stroke:none"
       id="text189"
       clip-path="url(#clipPath5)"
       y="73"
       xml:space="preserve"
       x="2">~ClockTime()</text>
  </g>
  <g
     style="font-size:11px;fill:#000000;fill-opacity:1;stroke:#000000;stroke-opacity:1;font-family:sans-serif"
     id="g191"
     text-rendering="geometricPrecision"
     transform="translate(373,112)"
     font-size="11">
    <text
       style="stroke:none"
       id="text193"
       clip-path="url(#clipPath5)"
       y="87"
       xml:space="preserve"
       x="2">-tick() : void</text>
  </g>
  <g
     style="font-size:11px;fill:#000000;fill-opacity:1;stroke:#000000;stroke-opacity:1;font-family:sans-serif"
     id="g195"
     text-rendering="geometricPrecision"
     transform="translate(373,112)"
     font-size="11">
    <text
       style="stroke:none"
       id="text197"
       clip-path="url(#clipPath5)"
       y="101"
       xml:space="preserve"
       x="2">+actionPerformed(e : ActionEvent) : void</text>
  </g>
  <g
     style="font-size:11px;fill:#000000;fill-opacity:1;stroke:#000000;stroke-opacity:1;font-family:sans-serif"
     id="g199"
     text-rendering="geometricPrecision"
     transform="translate(373,112)"
     font-size="11">
    <text
       style="stroke:none"
       id="text201"
       clip-path="url(#clipPath5)"
       y="115"
       xml:space="preserve"
       x="2">~addSecondsObserver(obs : Observer) : ...</text>
  </g>
  <g
     style="font-size:11px;fill:#000000;fill-opacity:1;stroke:#000000;stroke-opacity:1;font-family:sans-serif"
     id="g203"
     text-rendering="geometricPrecision"
     transform="translate(373,112)"
     font-size="11">
    <text
       style="stroke:none"
       id="text205"
       clip-path="url(#clipPath5)"
       y="129"
       xml:space="preserve"
       x="2">+equals(obj : Object) : boolean</text>
  </g>
  <g
     style="font-size:11px;font-weight:bold;fill:#000000;fill-opacity:1;stroke:#000000;stroke-opacity:1;font-family:sans-serif"
     id="g207"
     font-weight="bold"
     text-rendering="geometricPrecision"
     transform="translate(373,98)"
     font-size="11">
    <text
       style="stroke:none"
       id="text209"
       clip-path="url(#clipPath6)"
       y="11"
       xml:space="preserve"
       x="96">ClockTime</text>
  </g>
  <g
     style="font-size:11px;font-weight:bold;fill:#ffffff;fill-opacity:1;stroke:#ffffff;stroke-opacity:1;font-family:sans-serif"
     id="g211"
     font-weight="bold"
     text-rendering="geometricPrecision"
     transform="translate(752,91)"
     font-size="11">
    <rect
       style="stroke:none"
       id="rect213"
       clip-path="url(#clipPath7)"
       y="0"
       height="166"
       width="243"
       x="0" />
  </g>
  <g
     style="font-size:11px;font-weight:bold;fill:#000000;fill-opacity:1;stroke:#000000;stroke-linecap:butt;stroke-linejoin:round;stroke-miterlimit:0;stroke-opacity:1;font-family:sans-serif"
     id="g215"
     stroke-miterlimit="0"
     font-weight="bold"
     text-rendering="geometricPrecision"
     transform="translate(752,91)"
     font-size="11">
    <rect
       style="fill:none"
       id="rect217"
       clip-path="url(#clipPath7)"
       y="0"
       height="166"
       width="243"
       x="0" />
    <line
       style="fill:none"
       id="line219"
       y1="14"
       x2="243"
       clip-path="url(#clipPath7)"
       x1="0"
       y2="14" />
  </g>
  <g
     style="font-size:11px;fill:#000000;fill-opacity:1;stroke:#000000;stroke-opacity:1;font-family:sans-serif"
     id="g221"
     text-rendering="geometricPrecision"
     transform="translate(752,105)"
     font-size="11">
    <text
       style="stroke:none"
       id="text223"
       clip-path="url(#clipPath8)"
       y="13"
       xml:space="preserve"
       x="2">&lt;&lt;Property&gt;&gt; -value : int</text>
  </g>
  <g
     style="font-size:11px;fill:#000000;fill-opacity:1;stroke:#000000;stroke-opacity:1;font-family:sans-serif"
     id="g225"
     text-rendering="geometricPrecision"
     transform="translate(752,105)"
     font-size="11">
    <text
       style="stroke:none"
       id="text227"
       clip-path="url(#clipPath8)"
       y="27"
       xml:space="preserve"
       x="2">-limit : int</text>
  </g>
  <g
     style="font-size:11px;fill:#000000;fill-opacity:1;stroke:#000000;stroke-opacity:1;font-family:sans-serif"
     id="g229"
     text-rendering="geometricPrecision"
     transform="translate(752,105)"
     font-size="11">
    <text
       style="stroke:none"
       id="text231"
       clip-path="url(#clipPath8)"
       y="41"
       xml:space="preserve"
       x="2">&lt;&lt;Property&gt;&gt; -next : TimeElement = null</text>
    <line
       style="fill:none;stroke-linecap:butt;stroke-linejoin:bevel;stroke-miterlimit:0"
       id="line233"
       stroke-miterlimit="0"
       y2="46"
       y1="46"
       x2="243"
       x1="0"
       clip-path="url(#clipPath8)" />
  </g>
  <g
     style="font-size:11px;fill:#000000;fill-opacity:1;stroke:#000000;stroke-opacity:1;font-family:sans-serif"
     id="g235"
     text-rendering="geometricPrecision"
     transform="translate(752,105)"
     font-size="11">
    <text
       style="stroke:none"
       id="text237"
       clip-path="url(#clipPath8)"
       y="59"
       xml:space="preserve"
       x="2">+TimeElement(value : int, limit : int)</text>
  </g>
  <g
     style="font-size:11px;fill:#000000;fill-opacity:1;stroke:#000000;stroke-opacity:1;font-family:sans-serif"
     id="g239"
     text-rendering="geometricPrecision"
     transform="translate(752,105)"
     font-size="11">
    <text
       style="stroke:none"
       id="text241"
       clip-path="url(#clipPath8)"
       y="73"
       xml:space="preserve"
       x="2">+TimeElement(limit : int)</text>
  </g>
  <g
     style="font-size:11px;fill:#000000;fill-opacity:1;stroke:#000000;stroke-opacity:1;font-family:sans-serif"
     id="g243"
     text-rendering="geometricPrecision"
     transform="translate(752,105)"
     font-size="11">
    <text
       style="stroke:none"
       id="text245"
       clip-path="url(#clipPath8)"
       y="87"
       xml:space="preserve"
       x="2">+increment() : int</text>
  </g>
  <g
     style="font-size:11px;fill:#000000;fill-opacity:1;stroke:#000000;stroke-opacity:1;font-family:sans-serif"
     id="g247"
     text-rendering="geometricPrecision"
     transform="translate(752,105)"
     font-size="11">
    <text
       style="stroke:none"
       id="text249"
       clip-path="url(#clipPath8)"
       y="101"
       xml:space="preserve"
       x="2">+toString() : String</text>
  </g>
  <g
     style="font-size:11px;fill:#000000;fill-opacity:1;stroke:#000000;stroke-opacity:1;font-family:sans-serif"
     id="g251"
     text-rendering="geometricPrecision"
     transform="translate(752,105)"
     font-size="11">
    <text
       style="stroke:none"
       id="text253"
       clip-path="url(#clipPath8)"
       y="115"
       xml:space="preserve"
       x="2">~setValue(i : int) : void</text>
  </g>
  <g
     style="font-size:11px;fill:#000000;fill-opacity:1;stroke:#000000;stroke-opacity:1;font-family:sans-serif"
     id="g255"
     text-rendering="geometricPrecision"
     transform="translate(752,105)"
     font-size="11">
    <text
       style="stroke:none"
       id="text257"
       clip-path="url(#clipPath8)"
       y="129"
       xml:space="preserve"
       x="2">+hashCode() : int</text>
  </g>
  <g
     style="font-size:11px;fill:#000000;fill-opacity:1;stroke:#000000;stroke-opacity:1;font-family:sans-serif"
     id="g259"
     text-rendering="geometricPrecision"
     transform="translate(752,105)"
     font-size="11">
    <text
       style="stroke:none"
       id="text261"
       clip-path="url(#clipPath8)"
       y="143"
       xml:space="preserve"
       x="2">+equals(obj : Object) : boolean</text>
  </g>
  <g
     style="font-size:11px;font-weight:bold;fill:#000000;fill-opacity:1;stroke:#000000;stroke-opacity:1;font-family:sans-serif"
     id="g263"
     font-weight="bold"
     text-rendering="geometricPrecision"
     transform="translate(752,91)"
     font-size="11">
    <text
       style="stroke:none"
       id="text265"
       clip-path="url(#clipPath9)"
       y="11"
       xml:space="preserve"
       x="81">TimeElement</text>
  </g>
  <g
     style="font-size:11px;font-weight:bold;fill:#ffffff;fill-opacity:1;stroke:#ffffff;stroke-opacity:1;font-family:sans-serif"
     id="g267"
     font-weight="bold"
     text-rendering="geometricPrecision"
     transform="translate(774,295)"
     font-size="11">
    <rect
       style="stroke:none"
       id="rect269"
       clip-path="url(#clipPath10)"
       y="0"
       height="64"
       width="187"
       x="0" />
  </g>
  <g
     style="font-size:11px;font-weight:bold;fill:#000000;fill-opacity:1;stroke:#000000;stroke-linecap:butt;stroke-linejoin:round;stroke-miterlimit:0;stroke-opacity:1;font-family:sans-serif"
     id="g271"
     stroke-miterlimit="0"
     font-weight="bold"
     text-rendering="geometricPrecision"
     transform="translate(774,295)"
     font-size="11">
    <rect
       style="fill:none"
       id="rect273"
       clip-path="url(#clipPath10)"
       y="0"
       height="64"
       width="187"
       x="0" />
    <line
       style="fill:none"
       id="line275"
       y1="14"
       x2="187"
       clip-path="url(#clipPath10)"
       x1="0"
       y2="14" />
  </g>
  <g
     style="font-size:11px;fill:#000000;fill-opacity:1;stroke:#000000;stroke-opacity:1;font-family:sans-serif"
     id="g277"
     text-rendering="geometricPrecision"
     transform="translate(774,309)"
     font-size="11">
    <text
       style="stroke:none"
       id="text279"
       clip-path="url(#clipPath11)"
       y="13"
       xml:space="preserve"
       x="2">+WeekDay(d : int)</text>
  </g>
  <g
     style="font-size:11px;fill:#000000;fill-opacity:1;stroke:#000000;stroke-opacity:1;font-family:sans-serif"
     id="g281"
     text-rendering="geometricPrecision"
     transform="translate(774,309)"
     font-size="11">
    <text
       style="stroke:none"
       id="text283"
       clip-path="url(#clipPath11)"
       y="27"
       xml:space="preserve"
       x="2">~WeekDay(i : int, limit : int)</text>
  </g>
  <g
     style="font-size:11px;fill:#000000;fill-opacity:1;stroke:#000000;stroke-opacity:1;font-family:sans-serif"
     id="g285"
     text-rendering="geometricPrecision"
     transform="translate(774,309)"
     font-size="11">
    <text
       style="stroke:none"
       id="text287"
       clip-path="url(#clipPath11)"
       y="41"
       xml:space="preserve"
       x="2">+toString() : String</text>
  </g>
  <g
     style="font-size:11px;font-weight:bold;fill:#000000;fill-opacity:1;stroke:#000000;stroke-opacity:1;font-family:sans-serif"
     id="g289"
     font-weight="bold"
     text-rendering="geometricPrecision"
     transform="translate(774,295)"
     font-size="11">
    <text
       style="stroke:none"
       id="text291"
       clip-path="url(#clipPath12)"
       y="11"
       xml:space="preserve"
       x="63">WeekDay</text>
  </g>
  <g
     style="font-size:11px;font-weight:bold;fill:#ffffff;fill-opacity:1;stroke:#ffffff;stroke-opacity:1;font-family:sans-serif"
     id="g293"
     font-weight="bold"
     text-rendering="geometricPrecision"
     transform="translate(767,2)"
     font-size="11">
    <rect
       style="stroke:none"
       id="rect295"
       clip-path="url(#clipPath13)"
       y="0"
       height="40"
       width="212"
       x="0" />
  </g>
  <g
     style="font-size:11px;font-weight:bold;fill:#000000;fill-opacity:1;stroke:#000000;stroke-linecap:butt;stroke-linejoin:round;stroke-miterlimit:0;stroke-opacity:1;font-family:sans-serif"
     id="g297"
     stroke-miterlimit="0"
     font-weight="bold"
     text-rendering="geometricPrecision"
     transform="translate(767,2)"
     font-size="11">
    <rect
       style="fill:none"
       id="rect299"
       clip-path="url(#clipPath13)"
       y="0"
       height="40"
       width="212"
       x="0" />
    <line
       style="fill:none"
       id="line301"
       y1="40"
       x2="212"
       clip-path="url(#clipPath13)"
       x1="0"
       y2="40" />
  </g>
  <g
     style="font-size:11px;font-weight:bold;fill:#000000;fill-opacity:1;stroke:#000000;stroke-opacity:1;font-family:sans-serif"
     id="g303"
     font-weight="bold"
     text-rendering="geometricPrecision"
     transform="translate(767,2)"
     font-size="11">
    <text
       style="stroke:none"
       id="text305"
       clip-path="url(#clipPath14)"
       y="17"
       xml:space="preserve"
       x="70">Observable</text>
    <text
       style="font-weight:normal;stroke:none"
       id="text307"
       font-weight="normal"
       clip-path="url(#clipPath14)"
       y="31"
       xml:space="preserve"
       x="77">(java::util)</text>
  </g>
  <g
     style="font-size:11px;font-weight:bold;fill:#ffffff;fill-opacity:1;stroke:#ffffff;stroke-opacity:1;font-family:sans-serif"
     id="g309"
     font-weight="bold"
     text-rendering="geometricPrecision"
     transform="translate(402,2)"
     font-size="11">
    <rect
       style="stroke:none"
       id="rect311"
       clip-path="url(#clipPath15)"
       y="0"
       height="64"
       width="198"
       x="0" />
  </g>
  <g
     style="font-size:11px;font-weight:bold;fill:#000000;fill-opacity:1;stroke:#000000;stroke-linecap:butt;stroke-linejoin:round;stroke-miterlimit:0;stroke-opacity:1;font-family:sans-serif"
     id="g313"
     stroke-miterlimit="0"
     font-weight="bold"
     text-rendering="geometricPrecision"
     transform="translate(402,2)"
     font-size="11">
    <rect
       style="fill:none"
       id="rect315"
       clip-path="url(#clipPath15)"
       y="0"
       height="64"
       width="198"
       x="0" />
    <line
       style="fill:none"
       id="line317"
       y1="42"
       x2="198"
       clip-path="url(#clipPath15)"
       x1="0"
       y2="42" />
  </g>
  <g
     style="font-size:11px;font-style:italic;fill:#000000;fill-opacity:1;stroke:#000000;stroke-opacity:1;font-family:sans-serif"
     id="g319"
     font-style="italic"
     text-rendering="geometricPrecision"
     transform="translate(402,44)"
     font-size="11">
    <text
       style="stroke:none"
       id="text321"
       clip-path="url(#clipPath16)"
       y="13"
       xml:space="preserve"
       x="2">+actionPerformed(e : ActionEve...</text>
  </g>
  <g
     style="font-size:11px;fill:#000000;fill-opacity:1;stroke:#000000;stroke-opacity:1;font-family:sans-serif"
     id="g323"
     text-rendering="geometricPrecision"
     transform="translate(402,2)"
     font-size="11">
    <text
       style="stroke:none"
       id="text325"
       clip-path="url(#clipPath17)"
       y="11"
       xml:space="preserve"
       x="55">&lt;&lt;Interface&gt;&gt;</text>
    <text
       style="font-weight:bold;stroke:none"
       id="text327"
       font-weight="bold"
       clip-path="url(#clipPath17)"
       y="25"
       xml:space="preserve"
       x="53">ActionListener</text>
    <text
       style="stroke:none"
       id="text329"
       clip-path="url(#clipPath17)"
       y="39"
       xml:space="preserve"
       x="50">(java::awt::event)</text>
  </g>
  <g
     style="font-size:11px;font-weight:bold;fill:#ffffff;fill-opacity:1;stroke:#ffffff;stroke-opacity:1;font-family:sans-serif"
     id="g331"
     font-weight="bold"
     text-rendering="geometricPrecision"
     transform="translate(38,10)"
     font-size="11">
    <rect
       style="stroke:none"
       id="rect333"
       clip-path="url(#clipPath15)"
       y="0"
       height="64"
       width="198"
       x="0" />
  </g>
  <g
     style="font-size:11px;font-weight:bold;fill:#000000;fill-opacity:1;stroke:#000000;stroke-linecap:butt;stroke-linejoin:round;stroke-miterlimit:0;stroke-opacity:1;font-family:sans-serif"
     id="g335"
     stroke-miterlimit="0"
     font-weight="bold"
     text-rendering="geometricPrecision"
     transform="translate(38,10)"
     font-size="11">
    <rect
       style="fill:none"
       id="rect337"
       clip-path="url(#clipPath15)"
       y="0"
       height="64"
       width="198"
       x="0" />
    <line
       style="fill:none"
       id="line339"
       y1="42"
       x2="198"
       clip-path="url(#clipPath15)"
       x1="0"
       y2="42" />
  </g>
  <g
     style="font-size:11px;font-style:italic;fill:#000000;fill-opacity:1;stroke:#000000;stroke-opacity:1;font-family:sans-serif"
     id="g341"
     font-style="italic"
     text-rendering="geometricPrecision"
     transform="translate(38,52)"
     font-size="11">
    <text
       style="stroke:none"
       id="text343"
       clip-path="url(#clipPath16)"
       y="13"
       xml:space="preserve"
       x="2">+update(o : Observable, arg : O...</text>
  </g>
  <g
     style="font-size:11px;fill:#000000;fill-opacity:1;stroke:#000000;stroke-opacity:1;font-family:sans-serif"
     id="g345"
     text-rendering="geometricPrecision"
     transform="translate(38,10)"
     font-size="11">
    <text
       style="stroke:none"
       id="text347"
       clip-path="url(#clipPath17)"
       y="11"
       xml:space="preserve"
       x="55">&lt;&lt;Interface&gt;&gt;</text>
    <text
       style="font-weight:bold;stroke:none"
       id="text349"
       font-weight="bold"
       clip-path="url(#clipPath17)"
       y="25"
       xml:space="preserve"
       x="70">Observer</text>
    <text
       style="stroke:none"
       id="text351"
       clip-path="url(#clipPath17)"
       y="39"
       xml:space="preserve"
       x="70">(java::util)</text>
  </g>
  <g
     style="font-size:11px;fill:#ffffff;fill-opacity:1;stroke:#ffffff;stroke-opacity:1;font-family:sans-serif"
     id="g353"
     text-rendering="geometricPrecision"
     transform="translate(2,250)"
     font-size="11">
    <polygon
       style="stroke:none"
       id="polygon355"
       clip-path="url(#clipPath18)"
       points="299,15 284,15 284,0 299,15 299,70 0,70 0,0 284,0 " />
  </g>
  <g
     style="font-size:11px;fill:#000000;fill-opacity:1;stroke:#000000;stroke-linecap:butt;stroke-linejoin:round;stroke-miterlimit:0;stroke-opacity:1;font-family:sans-serif"
     id="g357"
     stroke-miterlimit="0"
     text-rendering="geometricPrecision"
     transform="translate(2,250)"
     font-size="11">
    <polygon
       style="fill:none"
       id="polygon359"
       clip-path="url(#clipPath18)"
       points="299,15 284,15 284,0 299,15 299,70 0,70 0,0 284,0 " />
  </g>
  <g
     style="font-size:15px;fill:#000000;fill-opacity:1;stroke:#000000;stroke-opacity:1;font-family:Ubuntu"
     id="g361"
     text-rendering="geometricPrecision"
     transform="translate(2,250)"
     font-size="15">
    <path
       style="stroke:none"
       inkscape:connector-curvature="0"
       id="path363"
       clip-path="url(#clipPath19)"
       d="m 6.7656,6.2573 -1.4844,4 2.9532,0 -1.4688,-4 z m -0.625,-1.0625 1.2344,0 3.0625,8.0156 -1.125,0 -0.7344,-2.0625 -3.625,0 -0.7187,2.0625 -1.1406,0 3.0468,-8.0156 z m 4.8906,-0.3437 1,0 0,8.3593 -1,0 0,-8.3593 z m 5.7344,5.3281 q -1.1875,0 -1.6484,0.2812 -0.461,0.2813 -0.461,0.9375 0,0.5157 0.3438,0.8282 0.3438,0.3125 0.9375,0.3125 0.8281,0 1.3203,-0.586 0.4922,-0.5859 0.4922,-1.539 l 0,-0.2344 -0.9844,0 z m 1.9688,-0.4063 0,3.4375 -0.9844,0 0,-0.9062 q -0.3281,0.5469 -0.8359,0.8047 -0.5079,0.2578 -1.2422,0.2578 -0.9219,0 -1.4688,-0.5156 -0.5469,-0.5157 -0.5469,-1.3907 0,-1.0156 0.6797,-1.5312 0.6797,-0.5156 2.0391,-0.5156 l 1.375,0 0,-0.0938 q 0,-0.6875 -0.4453,-1.0625 -0.4453,-0.375 -1.2578,-0.375 -0.5157,0 -1.0078,0.125 -0.4922,0.125 -0.9453,0.375 l 0,-0.9062 q 0.5468,-0.2188 1.0624,-0.3203 0.5157,-0.1016 0.9844,-0.1016 1.3125,0 1.9532,0.6719 0.6406,0.6718 0.6406,2.0468 z M 24.5156,8.1167 Q 24.3594,8.0229 24.1641,7.9761 23.9688,7.9292 23.7344,7.9292 q -0.8438,0 -1.2891,0.5469 Q 22,9.0229 22,10.0386 l 0,3.1718 -1,0 0,-6.0156 1,0 0,0.9375 q 0.2969,-0.5469 0.7969,-0.8125 0.5,-0.2656 1.2187,-0.2656 0.1094,0 0.2266,0.0078 0.1172,0.0078 0.2734,0.0391 l 0,1.0156 z m 6.2032,0.2344 q 0.375,-0.6719 0.8906,-0.9844 0.5156,-0.3125 1.2187,-0.3125 0.9375,0 1.4453,0.6562 0.5078,0.6563 0.5078,1.875 l 0,3.625 -1,0 0,-3.5937 q 0,-0.875 -0.3046,-1.2891 -0.3047,-0.414 -0.9297,-0.414 -0.7657,0 -1.211,0.5078 -0.4453,0.5078 -0.4453,1.3828 l 0,3.4062 -1,0 0,-3.5937 q 0,-0.875 -0.3047,-1.2891 -0.3047,-0.414 -0.9453,-0.414 -0.75,0 -1.1953,0.5078 Q 27,8.9292 27,9.8042 l 0,3.4062 -1,0 0,-6.0156 1,0 0,0.9375 q 0.3281,-0.5625 0.8047,-0.8203 0.4765,-0.2578 1.1172,-0.2578 0.6562,0 1.1172,0.3281 0.4609,0.3281 0.6797,0.9688 z m 10.6406,-0.9219 0,0.9219 Q 40.9531,8.1167 40.5312,7.9995 40.1094,7.8823 39.6719,7.8823 q -0.9531,0 -1.4844,0.6094 -0.5313,0.6094 -0.5313,1.7187 0,1.0938 0.5313,1.7032 0.5313,0.6093 1.4844,0.6093 0.4375,0 0.8593,-0.1093 0.4219,-0.1094 0.8282,-0.3438 l 0,0.9063 q -0.4063,0.2031 -0.8516,0.2968 -0.4453,0.0938 -0.9453,0.0938 -1.3594,0 -2.1563,-0.8516 -0.7968,-0.8515 -0.7968,-2.3047 0,-1.4687 0.8047,-2.3125 0.8047,-0.8437 2.2109,-0.8437 0.4688,0 0.8984,0.0937 0.4297,0.0938 0.836,0.2813 z m 1.6718,-2.5781 1,0 0,8.3593 -1,0 0,-8.3593 z m 5.3438,3.0312 q -0.7969,0 -1.2578,0.625 -0.461,0.625 -0.461,1.7031 0,1.0782 0.4532,1.6954 0.4531,0.6171 1.2656,0.6171 0.7812,0 1.2422,-0.6171 0.4609,-0.6172 0.4609,-1.6954 0,-1.0781 -0.4609,-1.7031 -0.461,-0.625 -1.2422,-0.625 z m 0,-0.8281 q 1.2812,0 2.0156,0.8359 0.7344,0.836 0.7344,2.3203 0,1.4688 -0.7344,2.3125 -0.7344,0.8438 -2.0156,0.8438 -1.2969,0 -2.0312,-0.8438 -0.7344,-0.8437 -0.7344,-2.3125 0,-1.4843 0.7344,-2.3203 0.7343,-0.8359 2.0312,-0.8359 z m 8.9844,0.375 0,0.9219 Q 56.9531,8.1167 56.5312,7.9995 56.1094,7.8823 55.6719,7.8823 q -0.9531,0 -1.4844,0.6094 -0.5313,0.6094 -0.5313,1.7187 0,1.0938 0.5313,1.7032 0.5313,0.6093 1.4844,0.6093 0.4375,0 0.8593,-0.1093 0.4219,-0.1094 0.8282,-0.3438 l 0,0.9063 q -0.4063,0.2031 -0.8516,0.2968 -0.4453,0.0938 -0.9453,0.0938 -1.3594,0 -2.1563,-0.8516 -0.7968,-0.8515 -0.7968,-2.3047 0,-1.4687 0.8047,-2.3125 0.8047,-0.8437 2.2109,-0.8437 0.4688,0 0.8984,0.0937 0.4297,0.0938 0.836,0.2813 z M 59,4.8511 l 1,0 0,4.9375 2.9375,-2.5938 1.2656,0 -3.1875,2.8125 3.3282,3.2031 -1.2969,0 L 60,10.2729 l 0,2.9375 -1,0 0,-8.3593 z m 12.7656,5.3281 q -1.1875,0 -1.6484,0.2812 -0.461,0.2813 -0.461,0.9375 0,0.5157 0.3438,0.8282 0.3438,0.3125 0.9375,0.3125 0.8281,0 1.3203,-0.586 0.4922,-0.5859 0.4922,-1.539 l 0,-0.2344 -0.9844,0 z m 1.9688,-0.4063 0,3.4375 -0.9844,0 0,-0.9062 q -0.3281,0.5469 -0.8359,0.8047 -0.5079,0.2578 -1.2422,0.2578 -0.9219,0 -1.4688,-0.5156 -0.5469,-0.5157 -0.5469,-1.3907 0,-1.0156 0.6797,-1.5312 0.6797,-0.5156 2.0391,-0.5156 l 1.375,0 0,-0.0938 q 0,-0.6875 -0.4453,-1.0625 -0.4453,-0.375 -1.2578,-0.375 -0.5157,0 -1.0078,0.125 -0.4922,0.125 -0.9453,0.375 l 0,-0.9062 q 0.5468,-0.2188 1.0624,-0.3203 0.5157,-0.1016 0.9844,-0.1016 1.3125,0 1.9532,0.6719 0.6406,0.6718 0.6406,2.0468 z m 3.2812,-4.2812 0,1.7031 2.0313,0 0,0.7656 -2.0313,0 0,3.2657 q 0,0.7343 0.2032,0.9453 0.2031,0.2109 0.8124,0.2109 l 1.0157,0 0,0.8281 -1.0157,0 q -1.1406,0 -1.5781,-0.4296 -0.4375,-0.4297 -0.4375,-1.5547 l 0,-3.2657 -0.7187,0 0,-0.7656 0.7187,0 0,-1.7031 1,0 z m 4,0 0,1.7031 2.0313,0 0,0.7656 -2.0313,0 0,3.2657 q 0,0.7343 0.2032,0.9453 0.2031,0.2109 0.8124,0.2109 l 1.0157,0 0,0.8281 -1.0157,0 q -1.1406,0 -1.5781,-0.4296 -0.4375,-0.4297 -0.4375,-1.5547 l 0,-3.2657 -0.7187,0 0,-0.7656 0.7187,0 0,-1.7031 1,0 z m 5.75,4.6875 q -1.1875,0 -1.6484,0.2812 -0.461,0.2813 -0.461,0.9375 0,0.5157 0.3438,0.8282 0.3438,0.3125 0.9375,0.3125 0.8281,0 1.3203,-0.586 0.4922,-0.5859 0.4922,-1.539 l 0,-0.2344 -0.9844,0 z m 1.9688,-0.4063 0,3.4375 -0.9844,0 0,-0.9062 q -0.3281,0.5469 -0.8359,0.8047 -0.5079,0.2578 -1.2422,0.2578 -0.9219,0 -1.4688,-0.5156 -0.5469,-0.5157 -0.5469,-1.3907 0,-1.0156 0.6797,-1.5312 0.6797,-0.5156 2.0391,-0.5156 l 1.375,0 0,-0.0938 q 0,-0.6875 -0.4453,-1.0625 -0.4453,-0.375 -1.2578,-0.375 -0.5157,0 -1.0078,0.125 -0.4922,0.125 -0.9453,0.375 l 0,-0.9062 q 0.5468,-0.2188 1.0624,-0.3203 0.5157,-0.1016 0.9844,-0.1016 1.3125,0 1.9532,0.6719 0.6406,0.6718 0.6406,2.0468 z m 6.625,-2.3437 0,0.9219 Q 94.9531,8.1167 94.5312,7.9995 94.1094,7.8823 93.6719,7.8823 q -0.9531,0 -1.4844,0.6094 -0.5313,0.6094 -0.5313,1.7187 0,1.0938 0.5313,1.7032 0.5313,0.6093 1.4844,0.6093 0.4375,0 0.8593,-0.1093 0.4219,-0.1094 0.8282,-0.3438 l 0,0.9063 q -0.4063,0.2031 -0.8516,0.2968 -0.4453,0.0938 -0.9453,0.0938 -1.3594,0 -2.1563,-0.8516 -0.7968,-0.8515 -0.7968,-2.3047 0,-1.4687 0.8047,-2.3125 0.8047,-0.8437 2.2109,-0.8437 0.4688,0 0.8984,0.0937 0.4297,0.0938 0.836,0.2813 z m 6.6718,2.1562 0,3.625 -0.9843,0 0,-3.5937 q 0,-0.8594 -0.3281,-1.2813 -0.3282,-0.4218 -1,-0.4218 -0.7969,0 -1.2579,0.5078 Q 98,8.9292 98,9.8042 l 0,3.4062 -1,0 0,-8.3593 1,0 0,3.2812 q 0.3438,-0.5469 0.8281,-0.8125 0.4844,-0.2656 1.1094,-0.2656 1.0313,0 1.5625,0.6406 0.5312,0.6406 0.5312,1.8906 z m 7.1563,0.375 0,0.4844 -4.5469,0 q 0.0625,1.0156 0.6094,1.5469 0.5469,0.5312 1.5312,0.5312 0.5782,0 1.1094,-0.1406 0.5313,-0.1406 1.0625,-0.4062 l 0,0.9218 q -0.5312,0.2344 -1.0937,0.3516 -0.5625,0.1172 -1.125,0.1172 -1.4532,0 -2.2891,-0.8359 -0.8359,-0.836 -0.8359,-2.2735 0,-1.4687 0.7968,-2.3359 0.7969,-0.8672 2.1563,-0.8672 1.2031,0 1.9141,0.7812 0.7109,0.7813 0.7109,2.125 z m -1,-0.2968 q 0,-0.8125 -0.4453,-1.2969 -0.4453,-0.4844 -1.1797,-0.4844 -0.8281,0 -1.3203,0.4688 -0.4922,0.4687 -0.5703,1.3125 l 3.5156,0 z m 6.6875,-2.2969 0,0.9375 Q 114.4531,8.0854 114,7.9839 q -0.4531,-0.1016 -0.9375,-0.1016 -0.7344,0 -1.1016,0.2266 -0.3671,0.2265 -0.3671,0.664 0,0.3438 0.2656,0.5391 0.2656,0.1953 1.0625,0.3828 l 0.3281,0.0781 q 1.0625,0.2188 1.5,0.6329 0.4375,0.414 0.4375,1.1484 0,0.8281 -0.6563,1.3203 -0.6562,0.4922 -1.8281,0.4922 -0.4843,0 -1.0078,-0.0938 -0.5234,-0.0937 -1.1015,-0.2812 l 0,-1.0156 q 0.5468,0.2812 1.0781,0.4218 0.5312,0.1407 1.0625,0.1407 0.6875,0 1.0625,-0.2422 0.375,-0.2422 0.375,-0.6641 0,-0.4062 -0.2657,-0.625 -0.2656,-0.2187 -1.1874,-0.4062 l -0.3438,-0.0938 q -0.9219,-0.1875 -1.3281,-0.5859 -0.4063,-0.3985 -0.4063,-1.1016 0,-0.8437 0.6016,-1.3047 0.6016,-0.4609 1.7109,-0.4609 0.5469,0 1.0313,0.0781 0.4844,0.0781 0.8906,0.2344 z m 11,0 0,0.9375 Q 125.4531,8.0854 125,7.9839 q -0.4531,-0.1016 -0.9375,-0.1016 -0.7344,0 -1.1016,0.2266 -0.3671,0.2265 -0.3671,0.664 0,0.3438 0.2656,0.5391 0.2656,0.1953 1.0625,0.3828 l 0.3281,0.0781 q 1.0625,0.2188 1.5,0.6329 0.4375,0.414 0.4375,1.1484 0,0.8281 -0.6563,1.3203 -0.6562,0.4922 -1.8281,0.4922 -0.4843,0 -1.0078,-0.0938 -0.5234,-0.0937 -1.1015,-0.2812 l 0,-1.0156 q 0.5468,0.2812 1.0781,0.4218 0.5312,0.1407 1.0625,0.1407 0.6875,0 1.0625,-0.2422 0.375,-0.2422 0.375,-0.6641 0,-0.4062 -0.2657,-0.625 -0.2656,-0.2187 -1.1874,-0.4062 l -0.3438,-0.0938 q -0.9219,-0.1875 -1.3281,-0.5859 -0.4063,-0.3985 -0.4063,-1.1016 0,-0.8437 0.6016,-1.3047 0.6016,-0.4609 1.7109,-0.4609 0.5469,0 1.0313,0.0781 0.4844,0.0781 0.8906,0.2344 z m 8.3125,2.5937 0,0.4844 -4.5469,0 q 0.0625,1.0156 0.6094,1.5469 0.5469,0.5312 1.5312,0.5312 0.5782,0 1.1094,-0.1406 0.5313,-0.1406 1.0625,-0.4062 l 0,0.9218 q -0.5312,0.2344 -1.0937,0.3516 -0.5625,0.1172 -1.125,0.1172 -1.4532,0 -2.2891,-0.8359 -0.8359,-0.836 -0.8359,-2.2735 0,-1.4687 0.7968,-2.3359 0.7969,-0.8672 2.1563,-0.8672 1.2031,0 1.9141,0.7812 0.7109,0.7813 0.7109,2.125 z m -1,-0.2968 q 0,-0.8125 -0.4453,-1.2969 -0.4453,-0.4844 -1.1797,-0.4844 -0.8281,0 -1.3203,0.4688 -0.4922,0.4687 -0.5703,1.3125 l 3.5156,0 z m 2.8437,-4.8125 1,0 0,8.3593 -1,0 0,-8.3593 z m 6.0469,0 0,0.8281 -0.9375,0 q -0.5312,0 -0.7422,0.2109 -0.2109,0.211 -0.2109,0.7735 l 0,0.5312 1.625,0 0,0.7656 -1.625,0 0,5.25 -0.9844,0 0,-5.25 -0.9531,0 0,-0.7656 0.9531,0 0,-0.4219 q 0,-1 0.461,-1.4609 0.4609,-0.4609 1.4765,-0.4609 l 0.9375,0 z m 7.6875,5.3281 q -1.1875,0 -1.6484,0.2812 -0.461,0.2813 -0.461,0.9375 0,0.5157 0.3438,0.8282 0.3438,0.3125 0.9375,0.3125 0.8281,0 1.3203,-0.586 0.4922,-0.5859 0.4922,-1.539 l 0,-0.2344 -0.9844,0 z m 1.9688,-0.4063 0,3.4375 -0.9844,0 0,-0.9062 q -0.3281,0.5469 -0.8359,0.8047 -0.5079,0.2578 -1.2422,0.2578 -0.9219,0 -1.4688,-0.5156 -0.5469,-0.5157 -0.5469,-1.3907 0,-1.0156 0.6797,-1.5312 0.6797,-0.5156 2.0391,-0.5156 l 1.375,0 0,-0.0938 q 0,-0.6875 -0.4453,-1.0625 -0.4453,-0.375 -1.2578,-0.375 -0.5157,0 -1.0078,0.125 -0.4922,0.125 -0.9453,0.375 l 0,-0.9062 q 0.5468,-0.2188 1.0624,-0.3203 0.5157,-0.1016 0.9844,-0.1016 1.3125,0 1.9532,0.6719 0.6406,0.6718 0.6406,2.0468 z m 6.1406,-2.4062 0,0.9375 Q 157.4531,8.0854 157,7.9839 q -0.4531,-0.1016 -0.9375,-0.1016 -0.7344,0 -1.1016,0.2266 -0.3671,0.2265 -0.3671,0.664 0,0.3438 0.2656,0.5391 0.2656,0.1953 1.0625,0.3828 l 0.3281,0.0781 q 1.0625,0.2188 1.5,0.6329 0.4375,0.414 0.4375,1.1484 0,0.8281 -0.6563,1.3203 -0.6562,0.4922 -1.8281,0.4922 -0.4843,0 -1.0078,-0.0938 -0.5234,-0.0937 -1.1015,-0.2812 l 0,-1.0156 q 0.5468,0.2812 1.0781,0.4218 0.5312,0.1407 1.0625,0.1407 0.6875,0 1.0625,-0.2422 0.375,-0.2422 0.375,-0.6641 0,-0.4062 -0.2657,-0.625 -0.2656,-0.2187 -1.1874,-0.4062 l -0.3438,-0.0938 q -0.9219,-0.1875 -1.3281,-0.5859 -0.4063,-0.3985 -0.4063,-1.1016 0,-0.8437 0.6016,-1.3047 0.6016,-0.4609 1.7109,-0.4609 0.5469,0 1.0313,0.0781 0.4844,0.0781 0.8906,0.2344 z" />
    <path
       style="stroke:none"
       inkscape:connector-curvature="0"
       id="path365"
       clip-path="url(#clipPath19)"
       d="m 6.375,21.8823 q -0.7969,0 -1.2578,0.625 -0.461,0.625 -0.461,1.7031 0,1.0782 0.4532,1.6954 0.4531,0.6171 1.2656,0.6171 0.7812,0 1.2422,-0.6171 0.4609,-0.6172 0.4609,-1.6954 0,-1.0781 -0.4609,-1.7031 -0.461,-0.625 -1.2422,-0.625 z m 0,-0.8281 q 1.2812,0 2.0156,0.8359 0.7344,0.836 0.7344,2.3203 0,1.4688 -0.7344,2.3125 -0.7344,0.8438 -2.0156,0.8438 -1.2969,0 -2.0312,-0.8438 -0.7344,-0.8437 -0.7344,-2.3125 0,-1.4843 0.7344,-2.3203 0.7343,-0.8359 2.0312,-0.8359 z m 8.9844,3.1562 q 0,-1.0937 -0.4532,-1.7109 -0.4531,-0.6172 -1.2343,-0.6172 -0.7813,0 -1.2266,0.6172 Q 12,23.1167 12,24.2104 q 0,1.0938 0.4453,1.711 0.4453,0.6172 1.2266,0.6172 0.7812,0 1.2343,-0.6172 0.4532,-0.6172 0.4532,-1.711 z M 12,22.1011 q 0.2969,-0.5313 0.7734,-0.7891 0.4766,-0.2578 1.1485,-0.2578 1.0937,0 1.7734,0.8672 0.6797,0.8672 0.6797,2.289 0,1.4219 -0.6797,2.2891 -0.6797,0.8672 -1.7734,0.8672 -0.6719,0 -1.1485,-0.2578 Q 12.2969,26.8511 12,26.3042 l 0,0.9062 -1,0 0,-8.3593 1,0 0,3.25 z m 9.875,-0.7344 0,0.9375 Q 21.4531,22.0854 21,21.9839 q -0.4531,-0.1016 -0.9375,-0.1016 -0.7344,0 -1.1016,0.2266 -0.3671,0.2265 -0.3671,0.664 0,0.3438 0.2656,0.5391 0.2656,0.1953 1.0625,0.3828 l 0.3281,0.0781 q 1.0625,0.2188 1.5,0.6329 0.4375,0.414 0.4375,1.1484 0,0.8281 -0.6563,1.3203 -0.6562,0.4922 -1.8281,0.4922 -0.4843,0 -1.0078,-0.0938 -0.5234,-0.0937 -1.1015,-0.2812 l 0,-1.0156 q 0.5468,0.2812 1.0781,0.4218 0.5312,0.1407 1.0625,0.1407 0.6875,0 1.0625,-0.2422 0.375,-0.2422 0.375,-0.6641 0,-0.4062 -0.2657,-0.625 -0.2656,-0.2187 -1.1874,-0.4062 L 19.375,24.5073 q -0.9219,-0.1875 -1.3281,-0.5859 -0.4063,-0.3985 -0.4063,-1.1016 0,-0.8437 0.6016,-1.3047 0.6016,-0.4609 1.7109,-0.4609 0.5469,0 1.0313,0.0781 0.4844,0.0781 0.8906,0.2344 z m 8.3125,2.5937 0,0.4844 -4.5469,0 q 0.0625,1.0156 0.6094,1.5469 0.5469,0.5312 1.5312,0.5312 0.5782,0 1.1094,-0.1406 0.5313,-0.1406 1.0625,-0.4062 l 0,0.9218 q -0.5312,0.2344 -1.0937,0.3516 -0.5625,0.1172 -1.125,0.1172 -1.4532,0 -2.2891,-0.8359 -0.8359,-0.836 -0.8359,-2.2735 0,-1.4687 0.7968,-2.3359 0.7969,-0.8672 2.1563,-0.8672 1.2031,0 1.9141,0.7812 0.7109,0.7813 0.7109,2.125 z m -1,-0.2968 q 0,-0.8125 -0.4453,-1.2969 -0.4453,-0.4844 -1.1797,-0.4844 -0.8281,0 -1.3203,0.4688 -0.4922,0.4687 -0.5703,1.3125 l 3.5156,0 z m 6.3281,-1.5469 q -0.1562,-0.0938 -0.3515,-0.1406 -0.1953,-0.0469 -0.4297,-0.0469 -0.8438,0 -1.2891,0.5469 Q 33,23.0229 33,24.0386 l 0,3.1718 -1,0 0,-6.0156 1,0 0,0.9375 q 0.2969,-0.5469 0.7969,-0.8125 0.5,-0.2656 1.2187,-0.2656 0.1094,0 0.2266,0.0078 0.1172,0.0078 0.2734,0.0391 l 0,1.0156 z m 0.8125,-0.9219 1.0469,0 1.875,5.0469 1.8906,-5.0469 1.0469,0 -2.2656,6.0156 -1.3438,0 -2.25,-6.0156 z m 11.8594,2.7656 0,0.4844 -4.5469,0 q 0.0625,1.0156 0.6094,1.5469 0.5469,0.5312 1.5312,0.5312 0.5782,0 1.1094,-0.1406 0.5313,-0.1406 1.0625,-0.4062 l 0,0.9218 q -0.5312,0.2344 -1.0937,0.3516 -0.5625,0.1172 -1.125,0.1172 -1.4532,0 -2.2891,-0.8359 -0.8359,-0.836 -0.8359,-2.2735 0,-1.4687 0.7968,-2.3359 0.7969,-0.8672 2.1563,-0.8672 1.2031,0 1.9141,0.7812 0.7109,0.7813 0.7109,2.125 z m -1,-0.2968 q 0,-0.8125 -0.4453,-1.2969 -0.4453,-0.4844 -1.1797,-0.4844 -0.8281,0 -1.3203,0.4688 -0.4922,0.4687 -0.5703,1.3125 l 3.5156,0 z m 6.3281,-1.5469 q -0.1562,-0.0938 -0.3515,-0.1406 -0.1953,-0.0469 -0.4297,-0.0469 -0.8438,0 -1.2891,0.5469 Q 51,23.0229 51,24.0386 l 0,3.1718 -1,0 0,-6.0156 1,0 0,0.9375 q 0.2969,-0.5469 0.7969,-0.8125 0.5,-0.2656 1.2187,-0.2656 0.1094,0 0.2266,0.0078 0.1172,0.0078 0.2734,0.0391 l 0,1.0156 z m 6.5,-2.625 0,1.7031 2.0313,0 0,0.7656 -2.0313,0 0,3.2657 q 0,0.7343 0.2032,0.9453 0.2031,0.2109 0.8124,0.2109 l 1.0157,0 0,0.8281 -1.0157,0 q -1.1406,0 -1.5781,-0.4296 -0.4375,-0.4297 -0.4375,-1.5547 l 0,-3.2657 -0.7187,0 0,-0.7656 0.7187,0 0,-1.7031 1,0 z m 5.3594,2.3906 q -0.7969,0 -1.2578,0.625 -0.461,0.625 -0.461,1.7031 0,1.0782 0.4532,1.6954 0.4531,0.6171 1.2656,0.6171 0.7812,0 1.2422,-0.6171 0.4609,-0.6172 0.4609,-1.6954 0,-1.0781 -0.4609,-1.7031 -0.461,-0.625 -1.2422,-0.625 z m 0,-0.8281 q 1.2812,0 2.0156,0.8359 0.7344,0.836 0.7344,2.3203 0,1.4688 -0.7344,2.3125 -0.7344,0.8438 -2.0156,0.8438 -1.2969,0 -2.0312,-0.8438 -0.7344,-0.8437 -0.7344,-2.3125 0,-1.4843 0.7344,-2.3203 0.7343,-0.8359 2.0312,-0.8359 z m 9.6406,-1.5625 0,1.7031 2.0313,0 0,0.7656 -2.0313,0 0,3.2657 q 0,0.7343 0.2032,0.9453 0.2031,0.2109 0.8124,0.2109 l 1.0157,0 0,0.8281 -1.0157,0 q -1.1406,0 -1.5781,-0.4296 -0.4375,-0.4297 -0.4375,-1.5547 l 0,-3.2657 -0.7187,0 0,-0.7656 0.7187,0 0,-1.7031 1,0 z m 8.0156,4.0937 0,3.625 -0.9843,0 0,-3.5937 q 0,-0.8594 -0.3281,-1.2813 -0.3282,-0.4218 -1,-0.4218 -0.7969,0 -1.2579,0.5078 Q 79,22.9292 79,23.8042 l 0,3.4062 -1,0 0,-8.3593 1,0 0,3.2812 q 0.3438,-0.5469 0.8281,-0.8125 0.4844,-0.2656 1.1094,-0.2656 1.0313,0 1.5625,0.6406 0.5312,0.6406 0.5312,1.8906 z m 7.1563,0.375 0,0.4844 -4.5469,0 q 0.0625,1.0156 0.6094,1.5469 0.5469,0.5312 1.5312,0.5312 0.5782,0 1.1094,-0.1406 0.5313,-0.1406 1.0625,-0.4062 l 0,0.9218 q -0.5312,0.2344 -1.0937,0.3516 -0.5625,0.1172 -1.125,0.1172 -1.4532,0 -2.2891,-0.8359 -0.8359,-0.836 -0.8359,-2.2735 0,-1.4687 0.7968,-2.3359 0.7969,-0.8672 2.1563,-0.8672 1.2031,0 1.9141,0.7812 0.7109,0.7813 0.7109,2.125 z m -1,-0.2968 q 0,-0.8125 -0.4453,-1.2969 -0.4453,-0.4844 -1.1797,-0.4844 -0.8281,0 -1.3203,0.4688 -0.4922,0.4687 -0.5703,1.3125 l 3.5156,0 z m 10.6875,-2.2969 0,0.9375 Q 99.4531,22.0854 99,21.9839 q -0.4531,-0.1016 -0.9375,-0.1016 -0.7344,0 -1.1016,0.2266 -0.3671,0.2265 -0.3671,0.664 0,0.3438 0.2656,0.5391 0.2656,0.1953 1.0625,0.3828 l 0.3281,0.0781 q 1.0625,0.2188 1.5,0.6329 0.4375,0.414 0.4375,1.1484 0,0.8281 -0.6563,1.3203 -0.6562,0.4922 -1.8281,0.4922 -0.4843,0 -1.0078,-0.0938 -0.5234,-0.0937 -1.1015,-0.2812 l 0,-1.0156 q 0.5468,0.2812 1.0781,0.4218 0.5312,0.1407 1.0625,0.1407 0.6875,0 1.0625,-0.2422 0.375,-0.2422 0.375,-0.6641 0,-0.4062 -0.2657,-0.625 -0.2656,-0.2187 -1.1874,-0.4062 L 97.375,24.5073 q -0.9219,-0.1875 -1.3281,-0.5859 -0.4063,-0.3985 -0.4063,-1.1016 0,-0.8437 0.6016,-1.3047 0.6016,-0.4609 1.7109,-0.4609 0.5469,0 1.0313,0.0781 0.4844,0.0781 0.8906,0.2344 z m 8.3125,2.5937 0,0.4844 -4.5469,0 q 0.0625,1.0156 0.6094,1.5469 0.5469,0.5312 1.5312,0.5312 0.5782,0 1.1094,-0.1406 0.5313,-0.1406 1.0625,-0.4062 l 0,0.9218 q -0.5312,0.2344 -1.0937,0.3516 -0.5625,0.1172 -1.125,0.1172 -1.4532,0 -2.2891,-0.8359 -0.8359,-0.836 -0.8359,-2.2735 0,-1.4687 0.7968,-2.3359 0.7969,-0.8672 2.1563,-0.8672 1.2031,0 1.9141,0.7812 0.7109,0.7813 0.7109,2.125 z m -1,-0.2968 q 0,-0.8125 -0.4453,-1.2969 -0.4453,-0.4844 -1.1797,-0.4844 -0.8281,0 -1.3203,0.4688 -0.4922,0.4687 -0.5703,1.3125 l 3.5156,0 z m 7.1719,-2.2344 0,0.9219 q -0.4063,-0.2344 -0.8282,-0.3516 -0.4218,-0.1172 -0.8593,-0.1172 -0.9531,0 -1.4844,0.6094 -0.5313,0.6094 -0.5313,1.7187 0,1.0938 0.5313,1.7032 0.5313,0.6093 1.4844,0.6093 0.4375,0 0.8593,-0.1093 0.4219,-0.1094 0.8282,-0.3438 l 0,0.9063 q -0.4063,0.2031 -0.8516,0.2968 -0.4453,0.0938 -0.9453,0.0938 -1.3594,0 -2.1563,-0.8516 -0.7968,-0.8515 -0.7968,-2.3047 0,-1.4687 0.8047,-2.3125 0.8047,-0.8437 2.2109,-0.8437 0.4688,0 0.8984,0.0937 0.4297,0.0938 0.836,0.2813 z m 4.0156,0.4531 q -0.7969,0 -1.2578,0.625 -0.461,0.625 -0.461,1.7031 0,1.0782 0.4532,1.6954 0.4531,0.6171 1.2656,0.6171 0.7812,0 1.2422,-0.6171 0.4609,-0.6172 0.4609,-1.6954 0,-1.0781 -0.4609,-1.7031 -0.461,-0.625 -1.2422,-0.625 z m 0,-0.8281 q 1.2812,0 2.0156,0.8359 0.7344,0.836 0.7344,2.3203 0,1.4688 -0.7344,2.3125 -0.7344,0.8438 -2.0156,0.8438 -1.2969,0 -2.0312,-0.8438 -0.7344,-0.8437 -0.7344,-2.3125 0,-1.4843 0.7344,-2.3203 0.7343,-0.8359 2.0312,-0.8359 z m 9.6562,2.5312 0,3.625 -0.9843,0 0,-3.5937 q 0,-0.8594 -0.3281,-1.2813 -0.3282,-0.4218 -1,-0.4218 -0.7969,0 -1.2579,0.5078 Q 124,22.9292 124,23.8042 l 0,3.4062 -1,0 0,-6.0156 1,0 0,0.9375 q 0.3438,-0.5469 0.8281,-0.8125 0.4844,-0.2656 1.1094,-0.2656 1.0313,0 1.5625,0.6406 0.5312,0.6406 0.5312,1.8906 z M 134,22.1011 l 0,-3.25 0.9844,0 0,8.3593 -0.9844,0 0,-0.9062 q -0.3125,0.5469 -0.7891,0.8047 -0.4765,0.2578 -1.1484,0.2578 -1.0781,0 -1.7656,-0.8672 -0.6875,-0.8672 -0.6875,-2.2891 0,-1.4218 0.6875,-2.289 0.6875,-0.8672 1.7656,-0.8672 0.6719,0 1.1484,0.2578 0.4766,0.2578 0.7891,0.7891 z m -3.375,2.1093 q 0,1.0938 0.4531,1.711 0.4531,0.6172 1.2344,0.6172 0.7813,0 1.2344,-0.6172 Q 134,25.3042 134,24.2104 q 0,-1.0937 -0.4531,-1.7109 -0.4531,-0.6172 -1.2344,-0.6172 -0.7813,0 -1.2344,0.6172 -0.4531,0.6172 -0.4531,1.7109 z m 10.25,-2.8437 0,0.9375 q -0.4219,-0.2188 -0.875,-0.3203 -0.4531,-0.1016 -0.9375,-0.1016 -0.7344,0 -1.1016,0.2266 -0.3671,0.2265 -0.3671,0.664 0,0.3438 0.2656,0.5391 0.2656,0.1953 1.0625,0.3828 l 0.3281,0.0781 q 1.0625,0.2188 1.5,0.6329 0.4375,0.414 0.4375,1.1484 0,0.8281 -0.6563,1.3203 -0.6562,0.4922 -1.8281,0.4922 -0.4843,0 -1.0078,-0.0938 -0.5234,-0.0937 -1.1015,-0.2812 l 0,-1.0156 q 0.5468,0.2812 1.0781,0.4218 0.5312,0.1407 1.0625,0.1407 0.6875,0 1.0625,-0.2422 0.375,-0.2422 0.375,-0.6641 0,-0.4062 -0.2657,-0.625 -0.2656,-0.2187 -1.1874,-0.4062 l -0.3438,-0.0938 q -0.9219,-0.1875 -1.3281,-0.5859 -0.4063,-0.3985 -0.4063,-1.1016 0,-0.8437 0.6016,-1.3047 0.6016,-0.4609 1.7109,-0.4609 0.5469,0 1.0313,0.0781 0.4844,0.0781 0.8906,0.2344 z m 6.0938,-2.1719 6.7812,0 0,0.9063 -2.8438,0 0,7.1093 -1.0937,0 0,-7.1093 -2.8437,0 0,-0.9063 z m 8.0624,2 1,0 0,6.0156 -1,0 0,-6.0156 z m 0,-2.3437 1,0 0,1.25 -1,0 0,-1.25 z m 7.6876,3.5 q 0.375,-0.6719 0.8906,-0.9844 0.5156,-0.3125 1.2187,-0.3125 0.9375,0 1.4453,0.6562 0.5078,0.6563 0.5078,1.875 l 0,3.625 -1,0 0,-3.5937 q 0,-0.875 -0.3046,-1.2891 -0.3047,-0.414 -0.9297,-0.414 -0.7657,0 -1.211,0.5078 -0.4453,0.5078 -0.4453,1.3828 l 0,3.4062 -1,0 0,-3.5937 q 0,-0.875 -0.3047,-1.2891 -0.3047,-0.414 -0.9453,-0.414 -0.75,0 -1.1953,0.5078 Q 159,22.9292 159,23.8042 l 0,3.4062 -1,0 0,-6.0156 1,0 0,0.9375 q 0.3281,-0.5625 0.8047,-0.8203 0.4765,-0.2578 1.1172,-0.2578 0.6562,0 1.1172,0.3281 0.4609,0.3281 0.6797,0.9688 z m 11.4687,1.6093 0,0.4844 -4.5469,0 q 0.0625,1.0156 0.6094,1.5469 0.5469,0.5312 1.5312,0.5312 0.5782,0 1.1094,-0.1406 0.5313,-0.1406 1.0625,-0.4062 l 0,0.9218 q -0.5312,0.2344 -1.0937,0.3516 -0.5625,0.1172 -1.125,0.1172 -1.4532,0 -2.2891,-0.8359 -0.8359,-0.836 -0.8359,-2.2735 0,-1.4687 0.7968,-2.3359 0.7969,-0.8672 2.1563,-0.8672 1.2031,0 1.9141,0.7812 0.7109,0.7813 0.7109,2.125 z m -1,-0.2968 q 0,-0.8125 -0.4453,-1.2969 -0.4453,-0.4844 -1.1797,-0.4844 -0.8281,0 -1.3203,0.4688 -0.4922,0.4687 -0.5703,1.3125 l 3.5156,0 z m 2.8906,-4.4688 5.0781,0 0,0.9063 -3.9843,0 0,2.375 3.8125,0 0,0.9218 -3.8125,0 0,2.9063 4.0781,0 0,0.9062 -5.1719,0 0,-8.0156 z m 6.9531,-0.3437 1,0 0,8.3593 -1,0 0,-8.3593 z m 8.1563,5.1093 0,0.4844 -4.5469,0 q 0.0625,1.0156 0.6094,1.5469 0.5469,0.5312 1.5312,0.5312 0.5782,0 1.1094,-0.1406 0.5313,-0.1406 1.0625,-0.4062 l 0,0.9218 q -0.5312,0.2344 -1.0937,0.3516 -0.5625,0.1172 -1.125,0.1172 -1.4532,0 -2.2891,-0.8359 -0.8359,-0.836 -0.8359,-2.2735 0,-1.4687 0.7968,-2.3359 0.7969,-0.8672 2.1563,-0.8672 1.2031,0 1.9141,0.7812 0.7109,0.7813 0.7109,2.125 z m -1,-0.2968 q 0,-0.8125 -0.4453,-1.2969 -0.4453,-0.4844 -1.1797,-0.4844 -0.8281,0 -1.3203,0.4688 -0.4922,0.4687 -0.5703,1.3125 l 3.5156,0 z m 7.5313,-1.3125 q 0.375,-0.6719 0.8906,-0.9844 0.5156,-0.3125 1.2187,-0.3125 0.9375,0 1.4453,0.6562 0.5078,0.6563 0.5078,1.875 l 0,3.625 -1,0 0,-3.5937 q 0,-0.875 -0.3046,-1.2891 -0.3047,-0.414 -0.9297,-0.414 -0.7657,0 -1.211,0.5078 -0.4453,0.5078 -0.4453,1.3828 l 0,3.4062 -1,0 0,-3.5937 q 0,-0.875 -0.3047,-1.2891 -0.3047,-0.414 -0.9453,-0.414 -0.75,0 -1.1953,0.5078 Q 194,22.9292 194,23.8042 l 0,3.4062 -1,0 0,-6.0156 1,0 0,0.9375 q 0.3281,-0.5625 0.8047,-0.8203 0.4765,-0.2578 1.1172,-0.2578 0.6562,0 1.1172,0.3281 0.4609,0.3281 0.6797,0.9688 z m 11.4687,1.6093 0,0.4844 -4.5469,0 q 0.0625,1.0156 0.6094,1.5469 0.5469,0.5312 1.5312,0.5312 0.5782,0 1.1094,-0.1406 0.5313,-0.1406 1.0625,-0.4062 l 0,0.9218 q -0.5312,0.2344 -1.0937,0.3516 -0.5625,0.1172 -1.125,0.1172 -1.4532,0 -2.2891,-0.8359 -0.8359,-0.836 -0.8359,-2.2735 0,-1.4687 0.7968,-2.3359 0.7969,-0.8672 2.1563,-0.8672 1.2031,0 1.9141,0.7812 0.7109,0.7813 0.7109,2.125 z m -1,-0.2968 q 0,-0.8125 -0.4453,-1.2969 -0.4453,-0.4844 -1.1797,-0.4844 -0.8281,0 -1.3203,0.4688 -0.4922,0.4687 -0.5703,1.3125 l 3.5156,0 z m 7.8437,-0.0782 0,3.625 -0.9843,0 0,-3.5937 q 0,-0.8594 -0.3281,-1.2813 -0.3282,-0.4218 -1,-0.4218 -0.7969,0 -1.2579,0.5078 Q 212,22.9292 212,23.8042 l 0,3.4062 -1,0 0,-6.0156 1,0 0,0.9375 q 0.3438,-0.5469 0.8281,-0.8125 0.4844,-0.2656 1.1094,-0.2656 1.0313,0 1.5625,0.6406 0.5312,0.6406 0.5312,1.8906 z m 2.9844,-4.0937 0,1.7031 2.0313,0 0,0.7656 -2.0313,0 0,3.2657 q 0,0.7343 0.2032,0.9453 0.2031,0.2109 0.8124,0.2109 l 1.0157,0 0,0.8281 -1.0157,0 q -1.1406,0 -1.5781,-0.4296 -0.4375,-0.4297 -0.4375,-1.5547 l 0,-3.2657 -0.7187,0 0,-0.7656 0.7187,0 0,-1.7031 1,0 z" />
    <path
       style="stroke:none"
       inkscape:connector-curvature="0"
       id="path367"
       clip-path="url(#clipPath19)"
       d="m 3.9375,38.8354 0,-3.6406 0.9844,0 0,3.6094 q 0,0.8437 0.3359,1.2734 0.336,0.4297 0.9922,0.4297 0.8125,0 1.2734,-0.5078 0.461,-0.5078 0.461,-1.3984 l 0,-3.4063 0.9844,0 0,6.0156 -0.9844,0 0,-0.9218 q -0.3594,0.5468 -0.836,0.8125 -0.4765,0.2656 -1.1015,0.2656 -1.0313,0 -1.5703,-0.6484 -0.5391,-0.6485 -0.5391,-1.8829 z m 10.9375,-3.4687 0,0.9375 Q 14.4531,36.0854 14,35.9839 q -0.4531,-0.1016 -0.9375,-0.1016 -0.7344,0 -1.1016,0.2266 -0.3671,0.2265 -0.3671,0.664 0,0.3438 0.2656,0.5391 0.2656,0.1953 1.0625,0.3828 l 0.3281,0.0781 q 1.0625,0.2188 1.5,0.6329 0.4375,0.414 0.4375,1.1484 0,0.8281 -0.6563,1.3203 -0.6562,0.4922 -1.8281,0.4922 -0.4843,0 -1.0078,-0.0938 -0.5234,-0.0937 -1.1015,-0.2812 l 0,-1.0156 q 0.5468,0.2812 1.0781,0.4218 0.5312,0.1407 1.0625,0.1407 0.6875,0 1.0625,-0.2422 0.375,-0.2422 0.375,-0.6641 0,-0.4062 -0.2657,-0.625 -0.2656,-0.2187 -1.1874,-0.4062 L 12.375,38.5073 q -0.9219,-0.1875 -1.3281,-0.5859 -0.4063,-0.3985 -0.4063,-1.1016 0,-0.8437 0.6016,-1.3047 0.6016,-0.4609 1.7109,-0.4609 0.5469,0 1.0313,0.0781 0.4844,0.0781 0.8906,0.2344 z m 3.1562,-0.1719 1,0 0,6.0156 -1,0 0,-6.0156 z m 0,-2.3437 1,0 0,1.25 -1,0 0,-1.25 z m 8,4.7343 0,3.625 -0.9843,0 0,-3.5937 q 0,-0.8594 -0.3281,-1.2813 -0.3282,-0.4218 -1,-0.4218 -0.7969,0 -1.2579,0.5078 Q 22,36.9292 22,37.8042 l 0,3.4062 -1,0 0,-6.0156 1,0 0,0.9375 q 0.3438,-0.5469 0.8281,-0.8125 0.4844,-0.2656 1.1094,-0.2656 1.0313,0 1.5625,0.6406 0.5312,0.6406 0.5312,1.8906 z M 32,38.1323 q 0,-1.0781 -0.4453,-1.664 -0.4453,-0.586 -1.2422,-0.586 -0.7969,0 -1.2422,0.586 -0.4453,0.5859 -0.4453,1.664 0,1.0625 0.4453,1.6563 0.4453,0.5937 1.2422,0.5937 0.7969,0 1.2422,-0.5937 Q 32,39.1948 32,38.1323 z m 0.9844,2.3281 q 0,1.5469 -0.6797,2.2891 -0.6797,0.7422 -2.0859,0.7422 -0.5313,0 -0.9922,-0.0781 -0.461,-0.0782 -0.8985,-0.2344 l 0,-0.9531 q 0.4375,0.2343 0.8594,0.3437 0.4219,0.1094 0.875,0.1094 0.9687,0 1.4531,-0.5078 Q 32,41.6636 32,40.6479 l 0,-0.5 q -0.3125,0.5313 -0.7891,0.7969 -0.4765,0.2656 -1.1484,0.2656 -1.1094,0 -1.7813,-0.8437 -0.6718,-0.8438 -0.6718,-2.2344 0,-1.3906 0.6718,-2.2344 0.6719,-0.8437 1.7813,-0.8437 0.6719,0 1.1484,0.2578 0.4766,0.2578 0.7891,0.7891 l 0,-0.9063 0.9844,0 0,5.2656 z m 7.0312,-6.9687 0,1.7031 2.0313,0 0,0.7656 -2.0313,0 0,3.2657 q 0,0.7343 0.2032,0.9453 0.2031,0.2109 0.8124,0.2109 l 1.0157,0 0,0.8281 -1.0157,0 q -1.1406,0 -1.5781,-0.4296 -0.4375,-0.4297 -0.4375,-1.5547 l 0,-3.2657 -0.7187,0 0,-0.7656 0.7187,0 0,-1.7031 1,0 z m 8.0156,4.0937 0,3.625 -0.9843,0 0,-3.5937 q 0,-0.8594 -0.3281,-1.2813 -0.3282,-0.4218 -1,-0.4218 -0.7969,0 -1.2579,0.5078 Q 44,36.9292 44,37.8042 l 0,3.4062 -1,0 0,-8.3593 1,0 0,3.2812 q 0.3438,-0.5469 0.8281,-0.8125 0.4844,-0.2656 1.1094,-0.2656 1.0313,0 1.5625,0.6406 0.5312,0.6406 0.5312,1.8906 z m 7.1563,0.375 0,0.4844 -4.5469,0 q 0.0625,1.0156 0.6094,1.5469 0.5469,0.5312 1.5312,0.5312 0.5782,0 1.1094,-0.1406 0.5313,-0.1406 1.0625,-0.4062 l 0,0.9218 q -0.5312,0.2344 -1.0937,0.3516 -0.5625,0.1172 -1.125,0.1172 -1.4532,0 -2.2891,-0.8359 -0.8359,-0.836 -0.8359,-2.2735 0,-1.4687 0.7968,-2.3359 0.7969,-0.8672 2.1563,-0.8672 1.2031,0 1.9141,0.7812 0.7109,0.7813 0.7109,2.125 z m -1,-0.2968 q 0,-0.8125 -0.4453,-1.2969 -0.4453,-0.4844 -1.1797,-0.4844 -0.8281,0 -1.3203,0.4688 -0.4922,0.4687 -0.5703,1.3125 l 3.5156,0 z m 11.5313,-1.3125 q 0.375,-0.6719 0.8906,-0.9844 0.5156,-0.3125 1.2187,-0.3125 0.9375,0 1.4453,0.6562 0.5078,0.6563 0.5078,1.875 l 0,3.625 -1,0 0,-3.5937 q 0,-0.875 -0.3046,-1.2891 -0.3047,-0.414 -0.9297,-0.414 -0.7657,0 -1.211,0.5078 -0.4453,0.5078 -0.4453,1.3828 l 0,3.4062 -1,0 0,-3.5937 q 0,-0.875 -0.3047,-1.2891 -0.3047,-0.414 -0.9453,-0.414 -0.75,0 -1.1953,0.5078 Q 62,36.9292 62,37.8042 l 0,3.4062 -1,0 0,-6.0156 1,0 0,0.9375 q 0.3281,-0.5625 0.8047,-0.8203 0.4765,-0.2578 1.1172,-0.2578 0.6562,0 1.1172,0.3281 0.4609,0.3281 0.6797,0.9688 z m 11.4687,1.6093 0,0.4844 -4.5469,0 q 0.0625,1.0156 0.6094,1.5469 0.5469,0.5312 1.5312,0.5312 0.5782,0 1.1094,-0.1406 0.5313,-0.1406 1.0625,-0.4062 l 0,0.9218 q -0.5312,0.2344 -1.0937,0.3516 -0.5625,0.1172 -1.125,0.1172 -1.4532,0 -2.2891,-0.8359 -0.8359,-0.836 -0.8359,-2.2735 0,-1.4687 0.7968,-2.3359 0.7969,-0.8672 2.1563,-0.8672 1.2031,0 1.9141,0.7812 0.7109,0.7813 0.7109,2.125 z m -1,-0.2968 q 0,-0.8125 -0.4453,-1.2969 -0.4453,-0.4844 -1.1797,-0.4844 -0.8281,0 -1.3203,0.4688 -0.4922,0.4687 -0.5703,1.3125 l 3.5156,0 z m 3.8281,-4.1719 0,1.7031 2.0313,0 0,0.7656 -2.0313,0 0,3.2657 q 0,0.7343 0.2032,0.9453 0.2031,0.2109 0.8124,0.2109 l 1.0157,0 0,0.8281 -1.0157,0 q -1.1406,0 -1.5781,-0.4296 -0.4375,-0.4297 -0.4375,-1.5547 l 0,-3.2657 -0.7187,0 0,-0.7656 0.7187,0 0,-1.7031 1,0 z m 8.0156,4.0937 0,3.625 -0.9843,0 0,-3.5937 q 0,-0.8594 -0.3281,-1.2813 -0.3282,-0.4218 -1,-0.4218 -0.7969,0 -1.2579,0.5078 Q 84,36.9292 84,37.8042 l 0,3.4062 -1,0 0,-8.3593 1,0 0,3.2812 q 0.3438,-0.5469 0.8281,-0.8125 0.4844,-0.2656 1.1094,-0.2656 1.0313,0 1.5625,0.6406 0.5312,0.6406 0.5312,1.8906 z m 4.3438,-1.7031 q -0.7969,0 -1.2578,0.625 -0.461,0.625 -0.461,1.7031 0,1.0782 0.4532,1.6954 0.4531,0.6171 1.2656,0.6171 0.7812,0 1.2422,-0.6171 0.4609,-0.6172 0.4609,-1.6954 0,-1.0781 -0.4609,-1.7031 -0.461,-0.625 -1.2422,-0.625 z m 0,-0.8281 q 1.2812,0 2.0156,0.8359 0.7344,0.836 0.7344,2.3203 0,1.4688 -0.7344,2.3125 -0.7344,0.8438 -2.0156,0.8438 -1.2969,0 -2.0312,-0.8438 -0.7344,-0.8437 -0.7344,-2.3125 0,-1.4843 0.7344,-2.3203 0.7343,-0.8359 2.0312,-0.8359 z m 8.625,1.0469 0,-3.25 0.9844,0 0,8.3593 -0.9844,0 0,-0.9062 q -0.3125,0.5469 -0.7891,0.8047 -0.4765,0.2578 -1.1484,0.2578 -1.0781,0 -1.7656,-0.8672 -0.6875,-0.8672 -0.6875,-2.2891 0,-1.4218 0.6875,-2.289 0.6875,-0.8672 1.7656,-0.8672 0.6719,0 1.1484,0.2578 0.4766,0.2578 0.7891,0.7891 z m -3.375,2.1093 q 0,1.0938 0.4531,1.711 0.4531,0.6172 1.2344,0.6172 0.7813,0 1.2344,-0.6172 Q 101,39.3042 101,38.2104 q 0,-1.0937 -0.4531,-1.7109 -0.4531,-0.6172 -1.2344,-0.6172 -0.7813,0 -1.2344,0.6172 -0.4531,0.6172 -0.4531,1.7109 z m 16.4531,-4.4062 0,1.1562 q -0.5469,-0.5156 -1.164,-0.7656 -0.6172,-0.25 -1.3203,-0.25 -1.375,0 -2.1016,0.836 -0.7266,0.8359 -0.7266,2.4296 0,1.5782 0.7266,2.4219 0.7266,0.8438 2.1016,0.8438 0.7031,0 1.3203,-0.25 0.6171,-0.25 1.164,-0.7657 l 0,1.125 q -0.5625,0.3907 -1.1953,0.586 -0.6328,0.1953 -1.3516,0.1953 -1.8124,0 -2.8593,-1.1172 -1.0469,-1.1172 -1.0469,-3.0391 0,-1.9375 1.0469,-3.0546 1.0469,-1.1172 2.8593,-1.1172 0.7188,0 1.3594,0.1953 0.6406,0.1953 1.1875,0.5703 z m 1.9531,-0.9531 1,0 0,8.3593 -1,0 0,-8.3593 z m 5.3438,3.0312 q -0.7969,0 -1.2578,0.625 -0.461,0.625 -0.461,1.7031 0,1.0782 0.4532,1.6954 0.4531,0.6171 1.2656,0.6171 0.7812,0 1.2422,-0.6171 0.4609,-0.6172 0.4609,-1.6954 0,-1.0781 -0.4609,-1.7031 -0.461,-0.625 -1.2422,-0.625 z m 0,-0.8281 q 1.2812,0 2.0156,0.8359 0.7344,0.836 0.7344,2.3203 0,1.4688 -0.7344,2.3125 -0.7344,0.8438 -2.0156,0.8438 -1.2969,0 -2.0312,-0.8438 -0.7344,-0.8437 -0.7344,-2.3125 0,-1.4843 0.7344,-2.3203 0.7343,-0.8359 2.0312,-0.8359 z m 8.9844,0.375 0,0.9219 q -0.4063,-0.2344 -0.8282,-0.3516 -0.4218,-0.1172 -0.8593,-0.1172 -0.9531,0 -1.4844,0.6094 -0.5313,0.6094 -0.5313,1.7187 0,1.0938 0.5313,1.7032 0.5313,0.6093 1.4844,0.6093 0.4375,0 0.8593,-0.1093 0.4219,-0.1094 0.8282,-0.3438 l 0,0.9063 q -0.4063,0.2031 -0.8516,0.2968 -0.4453,0.0938 -0.9453,0.0938 -1.3594,0 -2.1563,-0.8516 -0.7968,-0.8515 -0.7968,-2.3047 0,-1.4687 0.8047,-2.3125 0.8047,-0.8437 2.2109,-0.8437 0.4688,0 0.8984,0.0937 0.4297,0.0938 0.836,0.2813 z M 132,32.8511 l 1,0 0,4.9375 2.9375,-2.5938 1.2656,0 -3.1875,2.8125 3.3282,3.2031 -1.2969,0 -3.0469,-2.9375 0,2.9375 -1,0 0,-8.3593 z m 4.9688,0.3437 6.7812,0 0,0.9063 -2.8438,0 0,7.1093 -1.0937,0 0,-7.1093 -2.8437,0 0,-0.9063 z m 8.0624,2 1,0 0,6.0156 -1,0 0,-6.0156 z m 0,-2.3437 1,0 0,1.25 -1,0 0,-1.25 z m 7.6876,3.5 q 0.375,-0.6719 0.8906,-0.9844 0.5156,-0.3125 1.2187,-0.3125 0.9375,0 1.4453,0.6562 0.5078,0.6563 0.5078,1.875 l 0,3.625 -1,0 0,-3.5937 q 0,-0.875 -0.3046,-1.2891 -0.3047,-0.414 -0.9297,-0.414 -0.7657,0 -1.211,0.5078 -0.4453,0.5078 -0.4453,1.3828 l 0,3.4062 -1,0 0,-3.5937 q 0,-0.875 -0.3047,-1.2891 -0.3047,-0.414 -0.9453,-0.414 -0.75,0 -1.1953,0.5078 Q 149,36.9292 149,37.8042 l 0,3.4062 -1,0 0,-6.0156 1,0 0,0.9375 q 0.3281,-0.5625 0.8047,-0.8203 0.4765,-0.2578 1.1172,-0.2578 0.6562,0 1.1172,0.3281 0.4609,0.3281 0.6797,0.9688 z m 11.4687,1.6093 0,0.4844 -4.5469,0 q 0.0625,1.0156 0.6094,1.5469 0.5469,0.5312 1.5312,0.5312 0.5782,0 1.1094,-0.1406 0.5313,-0.1406 1.0625,-0.4062 l 0,0.9218 q -0.5312,0.2344 -1.0937,0.3516 -0.5625,0.1172 -1.125,0.1172 -1.4532,0 -2.2891,-0.8359 -0.8359,-0.836 -0.8359,-2.2735 0,-1.4687 0.7968,-2.3359 0.7969,-0.8672 2.1563,-0.8672 1.2031,0 1.9141,0.7812 0.7109,0.7813 0.7109,2.125 z m -1,-0.2968 q 0,-0.8125 -0.4453,-1.2969 -0.4453,-0.4844 -1.1797,-0.4844 -0.8281,0 -1.3203,0.4688 -0.4922,0.4687 -0.5703,1.3125 l 3.5156,0 z m 2.9844,2.1875 1.1406,0 0,1.3593 -1.1406,0 0,-1.3593 z" />
    <path
       style="stroke:none"
       inkscape:connector-curvature="0"
       id="path369"
       clip-path="url(#clipPath19)"
       d="m 6.7656,52.1792 q -1.1875,0 -1.6484,0.2812 -0.461,0.2813 -0.461,0.9375 0,0.5157 0.3438,0.8282 0.3438,0.3125 0.9375,0.3125 0.8281,0 1.3203,-0.586 Q 7.75,53.3667 7.75,52.4136 l 0,-0.2344 -0.9844,0 z m 1.9688,-0.4063 0,3.4375 -0.9844,0 0,-0.9062 q -0.3281,0.5469 -0.8359,0.8047 -0.5079,0.2578 -1.2422,0.2578 -0.9219,0 -1.4688,-0.5156 -0.5469,-0.5157 -0.5469,-1.3907 0,-1.0156 0.6797,-1.5312 0.6797,-0.5156 2.0391,-0.5156 l 1.375,0 0,-0.0938 q 0,-0.6875 -0.4453,-1.0625 -0.4453,-0.375 -1.2578,-0.375 -0.5157,0 -1.0078,0.125 -0.4922,0.125 -0.9453,0.375 l 0,-0.9062 q 0.5468,-0.2188 1.0624,-0.3203 0.5157,-0.1016 0.9844,-0.1016 1.3125,0 1.9532,0.6719 0.6406,0.6718 0.6406,2.0468 z M 15,50.1011 l 0,-3.25 0.9844,0 0,8.3593 -0.9844,0 0,-0.9062 q -0.3125,0.5469 -0.7891,0.8047 -0.4765,0.2578 -1.1484,0.2578 -1.0781,0 -1.7656,-0.8672 -0.6875,-0.8672 -0.6875,-2.2891 0,-1.4218 0.6875,-2.289 0.6875,-0.8672 1.7656,-0.8672 0.6719,0 1.1484,0.2578 0.4766,0.2578 0.7891,0.7891 z m -3.375,2.1093 q 0,1.0938 0.4531,1.711 0.4531,0.6172 1.2344,0.6172 0.7813,0 1.2344,-0.6172 Q 15,53.3042 15,52.2104 q 0,-1.0937 -0.4531,-1.7109 -0.4531,-0.6172 -1.2344,-0.6172 -0.7813,0 -1.2344,0.6172 -0.4531,0.6172 -0.4531,1.7109 z M 22,50.1011 l 0,-3.25 0.9844,0 0,8.3593 -0.9844,0 0,-0.9062 q -0.3125,0.5469 -0.7891,0.8047 -0.4765,0.2578 -1.1484,0.2578 -1.0781,0 -1.7656,-0.8672 -0.6875,-0.8672 -0.6875,-2.2891 0,-1.4218 0.6875,-2.289 0.6875,-0.8672 1.7656,-0.8672 0.6719,0 1.1484,0.2578 0.4766,0.2578 0.7891,0.7891 z m -3.375,2.1093 q 0,1.0938 0.4531,1.711 0.4531,0.6172 1.2344,0.6172 0.7813,0 1.2344,-0.6172 Q 22,53.3042 22,52.2104 q 0,-1.0937 -0.4531,-1.7109 -0.4531,-0.6172 -1.2344,-0.6172 -0.7813,0 -1.2344,0.6172 -0.4531,0.6172 -0.4531,1.7109 z m 11.2656,-4.75 0,1.0469 q -0.625,-0.2969 -1.1718,-0.4375 -0.5469,-0.1406 -1.0626,-0.1406 -0.875,0 -1.3593,0.3437 -0.4844,0.3438 -0.4844,0.9688 0,0.5312 0.3203,0.8047 0.3203,0.2734 1.211,0.4453 L 28,50.6167 q 1.2188,0.2344 1.7969,0.8203 0.5781,0.5859 0.5781,1.5547 0,1.1719 -0.7812,1.7734 -0.7813,0.6016 -2.2969,0.6016 -0.5625,0 -1.211,-0.1328 -0.6484,-0.1328 -1.3359,-0.3828 l 0,-1.1094 q 0.6719,0.375 1.3047,0.5625 0.6328,0.1875 1.2422,0.1875 0.9375,0 1.4375,-0.3672 0.5,-0.3672 0.5,-1.0391 0,-0.5937 -0.3594,-0.9296 -0.3594,-0.336 -1.1875,-0.5079 l -0.6563,-0.125 q -1.2187,-0.2343 -1.7656,-0.75 -0.5468,-0.5156 -0.5468,-1.4375 0,-1.0625 0.75,-1.6796 0.75,-0.6172 2.0781,-0.6172 0.5625,0 1.1484,0.1093 0.5859,0.1094 1.1953,0.3125 z m 8.2969,4.5 0,0.4844 -4.5469,0 q 0.0625,1.0156 0.6094,1.5469 0.5469,0.5312 1.5312,0.5312 0.5782,0 1.1094,-0.1406 0.5313,-0.1406 1.0625,-0.4062 l 0,0.9218 q -0.5312,0.2344 -1.0937,0.3516 -0.5625,0.1172 -1.125,0.1172 -1.4532,0 -2.2891,-0.8359 -0.8359,-0.836 -0.8359,-2.2735 0,-1.4687 0.7968,-2.3359 0.7969,-0.8672 2.1563,-0.8672 1.2031,0 1.9141,0.7812 0.7109,0.7813 0.7109,2.125 z m -1,-0.2968 q 0,-0.8125 -0.4453,-1.2969 -0.4453,-0.4844 -1.1797,-0.4844 -0.8281,0 -1.3203,0.4688 -0.4922,0.4687 -0.5703,1.3125 l 3.5156,0 z m 7.1719,-2.2344 0,0.9219 q -0.4063,-0.2344 -0.8282,-0.3516 -0.4218,-0.1172 -0.8593,-0.1172 -0.9531,0 -1.4844,0.6094 -0.5313,0.6094 -0.5313,1.7187 0,1.0938 0.5313,1.7032 0.5313,0.6093 1.4844,0.6093 0.4375,0 0.8593,-0.1093 0.4219,-0.1094 0.8282,-0.3438 l 0,0.9063 q -0.4063,0.2031 -0.8516,0.2968 -0.4453,0.0938 -0.9453,0.0938 -1.3594,0 -2.1563,-0.8516 -0.7968,-0.8515 -0.7968,-2.3047 0,-1.4687 0.8047,-2.3125 0.8047,-0.8437 2.2109,-0.8437 0.4688,0 0.8984,0.0937 0.4297,0.0938 0.836,0.2813 z m 4.0156,0.4531 q -0.7969,0 -1.2578,0.625 -0.461,0.625 -0.461,1.7031 0,1.0782 0.4532,1.6954 0.4531,0.6171 1.2656,0.6171 0.7812,0 1.2422,-0.6171 0.4609,-0.6172 0.4609,-1.6954 0,-1.0781 -0.4609,-1.7031 -0.461,-0.625 -1.2422,-0.625 z m 0,-0.8281 q 1.2812,0 2.0156,0.8359 0.7344,0.836 0.7344,2.3203 0,1.4688 -0.7344,2.3125 -0.7344,0.8438 -2.0156,0.8438 -1.2969,0 -2.0312,-0.8438 -0.7344,-0.8437 -0.7344,-2.3125 0,-1.4843 0.7344,-2.3203 0.7343,-0.8359 2.0312,-0.8359 z m 9.6562,2.5312 0,3.625 -0.9843,0 0,-3.5937 q 0,-0.8594 -0.3281,-1.2813 -0.3282,-0.4218 -1,-0.4218 -0.7969,0 -1.2579,0.5078 Q 54,50.9292 54,51.8042 l 0,3.4062 -1,0 0,-6.0156 1,0 0,0.9375 q 0.3438,-0.5469 0.8281,-0.8125 0.4844,-0.2656 1.1094,-0.2656 1.0313,0 1.5625,0.6406 0.5312,0.6406 0.5312,1.8906 z M 64,50.1011 l 0,-3.25 0.9844,0 0,8.3593 -0.9844,0 0,-0.9062 q -0.3125,0.5469 -0.7891,0.8047 -0.4765,0.2578 -1.1484,0.2578 -1.0781,0 -1.7656,-0.8672 -0.6875,-0.8672 -0.6875,-2.2891 0,-1.4218 0.6875,-2.289 0.6875,-0.8672 1.7656,-0.8672 0.6719,0 1.1484,0.2578 0.4766,0.2578 0.7891,0.7891 z m -3.375,2.1093 q 0,1.0938 0.4531,1.711 0.4531,0.6172 1.2344,0.6172 0.7813,0 1.2344,-0.6172 Q 64,53.3042 64,52.2104 q 0,-1.0937 -0.4531,-1.7109 -0.4531,-0.6172 -1.2344,-0.6172 -0.7813,0 -1.2344,0.6172 -0.4531,0.6172 -0.4531,1.7109 z m 10.25,-2.8437 0,0.9375 Q 70.4531,50.0854 70,49.9839 q -0.4531,-0.1016 -0.9375,-0.1016 -0.7344,0 -1.1016,0.2266 -0.3671,0.2265 -0.3671,0.664 0,0.3438 0.2656,0.5391 0.2656,0.1953 1.0625,0.3828 l 0.3281,0.0781 q 1.0625,0.2188 1.5,0.6329 0.4375,0.414 0.4375,1.1484 0,0.8281 -0.6563,1.3203 -0.6562,0.4922 -1.8281,0.4922 -0.4843,0 -1.0078,-0.0938 -0.5234,-0.0937 -1.1015,-0.2812 l 0,-1.0156 q 0.5468,0.2812 1.0781,0.4218 0.5312,0.1407 1.0625,0.1407 0.6875,0 1.0625,-0.2422 0.375,-0.2422 0.375,-0.6641 0,-0.4062 -0.2657,-0.625 -0.2656,-0.2187 -1.1874,-0.4062 L 68.375,52.5073 q -0.9219,-0.1875 -1.3281,-0.5859 -0.4063,-0.3985 -0.4063,-1.1016 0,-0.8437 0.6016,-1.3047 0.6016,-0.4609 1.7109,-0.4609 0.5469,0 1.0313,0.0781 0.4844,0.0781 0.8906,0.2344 z m 6.4531,-1.4375 q -1.1719,0 -1.8672,0.8828 -0.6953,0.8828 -0.6953,2.3984 0,1.5157 0.6953,2.3985 0.6953,0.8828 1.8672,0.8828 1.1875,0 1.875,-0.8828 0.6875,-0.8828 0.6875,-2.3985 0,-1.5156 -0.6875,-2.3984 -0.6875,-0.8828 -1.875,-0.8828 z m 0,-0.8906 q 1.6875,0 2.7031,1.1328 1.0157,1.1328 1.0157,3.039 0,1.8907 -1.0157,3.0235 -1.0156,1.1328 -2.7031,1.1328 -1.6875,0 -2.6953,-1.125 -1.0078,-1.125 -1.0078,-3.0313 0,-1.9062 1.0078,-3.039 1.0078,-1.1328 2.6953,-1.1328 z m 10.0313,5.1718 q 0,-1.0937 -0.4532,-1.7109 -0.4531,-0.6172 -1.2343,-0.6172 -0.7813,0 -1.2266,0.6172 Q 84,51.1167 84,52.2104 q 0,1.0938 0.4453,1.711 0.4453,0.6172 1.2266,0.6172 0.7812,0 1.2343,-0.6172 0.4532,-0.6172 0.4532,-1.711 z M 84,50.1011 q 0.2969,-0.5313 0.7734,-0.7891 0.4766,-0.2578 1.1485,-0.2578 1.0937,0 1.7734,0.8672 0.6797,0.8672 0.6797,2.289 0,1.4219 -0.6797,2.2891 -0.6797,0.8672 -1.7734,0.8672 -0.6719,0 -1.1485,-0.2578 Q 84.2969,54.8511 84,54.3042 l 0,0.9062 -1,0 0,-8.3593 1,0 0,3.25 z m 9.875,-0.7344 0,0.9375 Q 93.4531,50.0854 93,49.9839 q -0.4531,-0.1016 -0.9375,-0.1016 -0.7344,0 -1.1016,0.2266 -0.3671,0.2265 -0.3671,0.664 0,0.3438 0.2656,0.5391 0.2656,0.1953 1.0625,0.3828 l 0.3281,0.0781 q 1.0625,0.2188 1.5,0.6329 0.4375,0.414 0.4375,1.1484 0,0.8281 -0.6563,1.3203 -0.6562,0.4922 -1.8281,0.4922 -0.4843,0 -1.0078,-0.0938 -0.5234,-0.0937 -1.1015,-0.2812 l 0,-1.0156 q 0.5468,0.2812 1.0781,0.4218 0.5312,0.1407 1.0625,0.1407 0.6875,0 1.0625,-0.2422 0.375,-0.2422 0.375,-0.6641 0,-0.4062 -0.2657,-0.625 -0.2656,-0.2187 -1.1874,-0.4062 L 91.375,52.5073 q -0.9219,-0.1875 -1.3281,-0.5859 -0.4063,-0.3985 -0.4063,-1.1016 0,-0.8437 0.6016,-1.3047 0.6016,-0.4609 1.7109,-0.4609 0.5469,0 1.0313,0.0781 0.4844,0.0781 0.8906,0.2344 z m 8.3125,2.5937 0,0.4844 -4.5469,0 q 0.0625,1.0156 0.6094,1.5469 0.5469,0.5312 1.5312,0.5312 0.5782,0 1.1094,-0.1406 0.5313,-0.1406 1.0625,-0.4062 l 0,0.9218 q -0.5312,0.2344 -1.0937,0.3516 -0.5625,0.1172 -1.125,0.1172 -1.4532,0 -2.2891,-0.8359 -0.8359,-0.836 -0.8359,-2.2735 0,-1.4687 0.7968,-2.3359 0.7969,-0.8672 2.1563,-0.8672 1.2031,0 1.9141,0.7812 0.7109,0.7813 0.7109,2.125 z m -1,-0.2968 q 0,-0.8125 -0.4453,-1.2969 -0.4453,-0.4844 -1.1797,-0.4844 -0.8281,0 -1.3203,0.4688 -0.4922,0.4687 -0.5703,1.3125 l 3.5156,0 z m 6.3281,-1.5469 q -0.1562,-0.0938 -0.3515,-0.1406 -0.1953,-0.0469 -0.4297,-0.0469 -0.8438,0 -1.2891,0.5469 Q 105,51.0229 105,52.0386 l 0,3.1718 -1,0 0,-6.0156 1,0 0,0.9375 q 0.2969,-0.5469 0.7969,-0.8125 0.5,-0.2656 1.2187,-0.2656 0.1094,0 0.2266,0.0078 0.1172,0.0078 0.2734,0.0391 l 0,1.0156 z m 0.8125,-0.9219 1.0469,0 1.875,5.0469 1.8906,-5.0469 1.0469,0 -2.2656,6.0156 -1.3438,0 -2.25,-6.0156 z m 11.8594,2.7656 0,0.4844 -4.5469,0 q 0.0625,1.0156 0.6094,1.5469 0.5469,0.5312 1.5312,0.5312 0.5782,0 1.1094,-0.1406 0.5313,-0.1406 1.0625,-0.4062 l 0,0.9218 q -0.5312,0.2344 -1.0937,0.3516 -0.5625,0.1172 -1.125,0.1172 -1.4532,0 -2.2891,-0.8359 -0.8359,-0.836 -0.8359,-2.2735 0,-1.4687 0.7968,-2.3359 0.7969,-0.8672 2.1563,-0.8672 1.2031,0 1.9141,0.7812 0.7109,0.7813 0.7109,2.125 z m -1,-0.2968 q 0,-0.8125 -0.4453,-1.2969 -0.4453,-0.4844 -1.1797,-0.4844 -0.8281,0 -1.3203,0.4688 -0.4922,0.4687 -0.5703,1.3125 l 3.5156,0 z m 6.3281,-1.5469 q -0.1562,-0.0938 -0.3515,-0.1406 -0.1953,-0.0469 -0.4297,-0.0469 -0.8438,0 -1.2891,0.5469 Q 123,51.0229 123,52.0386 l 0,3.1718 -1,0 0,-6.0156 1,0 0,0.9375 q 0.2969,-0.5469 0.7969,-0.8125 0.5,-0.2656 1.2187,-0.2656 0.1094,0 0.2266,0.0078 0.1172,0.0078 0.2734,0.0391 l 0,1.0156 z m 3.8906,-3.25 q -0.7187,1.2344 -1.0624,2.4453 Q 128,50.5229 128,51.7573 q 0,1.2344 0.3516,2.4531 0.3515,1.2188 1.0546,2.4532 l -0.8593,0 q -0.7969,-1.2657 -1.1953,-2.4844 -0.3985,-1.2188 -0.3985,-2.4219 0,-1.2031 0.3907,-2.414 0.3906,-1.211 1.2031,-2.4766 l 0.8593,0 z m 3.9688,3.0156 q -0.7969,0 -1.2578,0.625 -0.461,0.625 -0.461,1.7031 0,1.0782 0.4532,1.6954 0.4531,0.6171 1.2656,0.6171 0.7812,0 1.2422,-0.6171 0.4609,-0.6172 0.4609,-1.6954 0,-1.0781 -0.4609,-1.7031 -0.461,-0.625 -1.2422,-0.625 z m 0,-0.8281 q 1.2812,0 2.0156,0.8359 0.7344,0.836 0.7344,2.3203 0,1.4688 -0.7344,2.3125 -0.7344,0.8438 -2.0156,0.8438 -1.2969,0 -2.0312,-0.8438 -0.7344,-0.8437 -0.7344,-2.3125 0,-1.4843 0.7344,-2.3203 0.7343,-0.8359 2.0312,-0.8359 z m 8.9844,3.1562 q 0,-1.0937 -0.4532,-1.7109 -0.4531,-0.6172 -1.2343,-0.6172 -0.7813,0 -1.2266,0.6172 Q 139,51.1167 139,52.2104 q 0,1.0938 0.4453,1.711 0.4453,0.6172 1.2266,0.6172 0.7812,0 1.2343,-0.6172 0.4532,-0.6172 0.4532,-1.711 z M 139,50.1011 q 0.2969,-0.5313 0.7734,-0.7891 0.4766,-0.2578 1.1485,-0.2578 1.0937,0 1.7734,0.8672 0.6797,0.8672 0.6797,2.289 0,1.4219 -0.6797,2.2891 -0.6797,0.8672 -1.7734,0.8672 -0.6719,0 -1.1485,-0.2578 Q 139.2969,54.8511 139,54.3042 l 0,0.9062 -1,0 0,-8.3593 1,0 0,3.25 z m 9.875,-0.7344 0,0.9375 q -0.4219,-0.2188 -0.875,-0.3203 -0.4531,-0.1016 -0.9375,-0.1016 -0.7344,0 -1.1016,0.2266 -0.3671,0.2265 -0.3671,0.664 0,0.3438 0.2656,0.5391 0.2656,0.1953 1.0625,0.3828 l 0.3281,0.0781 q 1.0625,0.2188 1.5,0.6329 0.4375,0.414 0.4375,1.1484 0,0.8281 -0.6563,1.3203 -0.6562,0.4922 -1.8281,0.4922 -0.4843,0 -1.0078,-0.0938 -0.5234,-0.0937 -1.1015,-0.2812 l 0,-1.0156 q 0.5468,0.2812 1.0781,0.4218 0.5312,0.1407 1.0625,0.1407 0.6875,0 1.0625,-0.2422 0.375,-0.2422 0.375,-0.6641 0,-0.4062 -0.2657,-0.625 -0.2656,-0.2187 -1.1874,-0.4062 l -0.3438,-0.0938 q -0.9219,-0.1875 -1.3281,-0.5859 -0.4063,-0.3985 -0.4063,-1.1016 0,-0.8437 0.6016,-1.3047 0.6016,-0.4609 1.7109,-0.4609 0.5469,0 1.0313,0.0781 0.4844,0.0781 0.8906,0.2344 z m 3,-2.5 0.8594,0 q 0.8125,1.2656 1.2109,2.4766 0.3985,1.2109 0.3985,2.414 0,1.2031 -0.3985,2.4219 -0.3984,1.2187 -1.2109,2.4844 l -0.8594,0 q 0.7188,-1.2344 1.0703,-2.4532 0.3516,-1.2187 0.3516,-2.4531 0,-1.2344 -0.3516,-2.4453 -0.3515,-1.2109 -1.0703,-2.4453 z" />
  </g>
  <g
     style="font-size:11px;fill:#000000;fill-opacity:1;stroke:#000000;stroke-opacity:1;font-family:sans-serif"
     id="g371"
     text-rendering="geometricPrecision"
     transform="translate(1016,180)"
     font-size="11">
    <text
       style="stroke:none"
       id="text373"
       clip-path="url(#clipPath21)"
       y="29"
       xml:space="preserve"
       x="10">-next</text>
  </g>
  <g
     style="font-size:11px;fill:#000000;fill-opacity:1;stroke:#000000;stroke-opacity:1;font-family:sans-serif"
     id="g375"
     text-rendering="geometricPrecision"
     transform="translate(323,163)"
     font-size="11">
    <text
       style="stroke:none"
       id="text377"
       clip-path="url(#clipPath23)"
       y="27"
       xml:space="preserve"
       x="10">time</text>
  </g>
  <g
     style="font-size:11px;fill:#000000;fill-opacity:1;stroke:#000000;stroke-opacity:1;font-family:sans-serif"
     id="g379"
     text-rendering="geometricPrecision"
     transform="translate(288,93)"
     font-size="11">
    <text
       style="stroke:none"
       id="text381"
       clip-path="url(#clipPath25)"
       y="44"
       xml:space="preserve"
       x="9">alarmTime</text>
  </g>
  <g
     style="font-size:11px;fill:#000000;fill-opacity:1;stroke:#000000;stroke-opacity:1;font-family:sans-serif"
     id="g383"
     text-rendering="geometricPrecision"
     transform="translate(692,131)"
     font-size="11">
    <text
       style="stroke:none"
       id="text385"
       clip-path="url(#clipPath27)"
       y="32"
       xml:space="preserve"
       x="9">-hours</text>
  </g>
  <g
     style="font-size:11px;fill:#000000;fill-opacity:1;stroke:#000000;stroke-opacity:1;font-family:sans-serif"
     id="g387"
     text-rendering="geometricPrecision"
     transform="translate(672,190)"
     font-size="11">
    <text
       style="stroke:none"
       id="text389"
       clip-path="url(#clipPath29)"
       y="39"
       xml:space="preserve"
       x="8">-seconds</text>
  </g>
  <g
     style="font-size:11px;fill:#000000;fill-opacity:1;stroke:#000000;stroke-opacity:1;font-family:sans-serif"
     id="g391"
     text-rendering="geometricPrecision"
     transform="translate(678,157)"
     font-size="11">
    <text
       style="stroke:none"
       id="text393"
       clip-path="url(#clipPath29)"
       y="39"
       xml:space="preserve"
       x="9">-minutes</text>
  </g>
  <g
     style="font-size:11px;fill:#000000;fill-opacity:1;stroke:#000000;stroke-opacity:1;font-family:sans-serif"
     id="g395"
     text-rendering="geometricPrecision"
     transform="translate(697,100)"
     font-size="11">
    <text
       style="stroke:none"
       id="text397"
       clip-path="url(#clipPath21)"
       y="29"
       xml:space="preserve"
       x="9">-days</text>
  </g>
  <g
     style="font-size:11px;fill:#000000;fill-opacity:1;stroke:#000000;stroke-linecap:butt;stroke-linejoin:round;stroke-opacity:1;font-family:sans-serif"
     id="g399"
     text-rendering="geometricPrecision"
     transform="translate(839,-7)"
     font-size="11">
    <line
       style="fill:none"
       id="line401"
       y1="50"
       x2="50"
       clip-path="url(#clipPath30)"
       x1="50"
       y2="97" />
    <polygon
       style="fill:#ffffff;stroke:none"
       id="polygon403"
       points="56,62 50,50 44,62 "
       clip-path="url(#clipPath30)" />
    <polygon
       style="fill:none"
       id="polygon405"
       clip-path="url(#clipPath30)"
       points="56,62 50,50 44,62 " />
  </g>
  <g
     style="font-size:11px;fill:#000000;fill-opacity:1;stroke:#000000;stroke-linecap:butt;stroke-linejoin:round;stroke-opacity:1;stroke-dasharray:5;stroke-dashoffset:1;font-family:sans-serif"
     id="g407"
     text-rendering="geometricPrecision"
     transform="translate(474,17)"
     font-size="11">
    <line
       style="fill:none"
       id="line409"
       y1="50"
       x2="50"
       clip-path="url(#clipPath31)"
       x1="50"
       y2="80" />
  </g>
  <g
     style="font-size:11px;fill:#ffffff;fill-opacity:1;stroke:#ffffff;stroke-linecap:butt;stroke-linejoin:round;stroke-opacity:1;font-family:sans-serif"
     id="g411"
     text-rendering="geometricPrecision"
     transform="translate(474,17)"
     font-size="11">
    <polygon
       style="stroke:none"
       id="polygon413"
       clip-path="url(#clipPath31)"
       points="56,62 50,50 44,62 " />
    <polygon
       style="fill:none;stroke:#000000"
       id="polygon415"
       points="56,62 50,50 44,62 "
       clip-path="url(#clipPath31)" />
  </g>
  <g
     style="font-size:11px;fill:#000000;fill-opacity:1;stroke:#000000;stroke-linecap:butt;stroke-linejoin:round;stroke-opacity:1;stroke-dasharray:5;stroke-dashoffset:1;font-family:sans-serif"
     id="g417"
     text-rendering="geometricPrecision"
     transform="translate(76,25)"
     font-size="11">
    <line
       style="fill:none"
       id="line419"
       y1="50"
       x2="50"
       clip-path="url(#clipPath32)"
       x1="50"
       y2="93" />
  </g>
  <g
     style="font-size:11px;fill:#ffffff;fill-opacity:1;stroke:#ffffff;stroke-linecap:butt;stroke-linejoin:round;stroke-opacity:1;font-family:sans-serif"
     id="g421"
     text-rendering="geometricPrecision"
     transform="translate(76,25)"
     font-size="11">
    <polygon
       style="stroke:none"
       id="polygon423"
       clip-path="url(#clipPath32)"
       points="56,62 50,50 44,62 " />
    <polygon
       style="fill:none;stroke:#000000"
       id="polygon425"
       points="56,62 50,50 44,62 "
       clip-path="url(#clipPath32)" />
  </g>
  <g
     style="font-size:11px;fill:#000000;fill-opacity:1;stroke:#000000;stroke-linecap:butt;stroke-linejoin:round;stroke-opacity:1;font-family:sans-serif"
     id="g427"
     text-rendering="geometricPrecision"
     transform="translate(202,144)"
     font-size="11">
    <line
       style="fill:none"
       id="line429"
       y1="50"
       x2="164"
       clip-path="url(#clipPath33)"
       x1="50"
       y2="50" />
    <line
       style="fill:none"
       id="line431"
       y1="56"
       x2="63"
       clip-path="url(#clipPath33)"
       x1="54"
       y2="44" />
    <line
       style="fill:none"
       id="line433"
       y1="44"
       x2="63"
       clip-path="url(#clipPath33)"
       x1="54"
       y2="56" />
    <line
       style="fill:none"
       id="line435"
       y1="50"
       x2="152"
       clip-path="url(#clipPath33)"
       x1="164"
       y2="44" />
    <line
       style="fill:none"
       id="line437"
       y1="50"
       x2="152"
       clip-path="url(#clipPath33)"
       x1="164"
       y2="56" />
    <circle
       style="stroke:none"
       sodipodi:ry="3.2"
       sodipodi:rx="3.2"
       sodipodi:cy="50"
       sodipodi:cx="166.8"
       d="m 170,50 c 0,1.767311 -1.43269,3.2 -3.2,3.2 -1.76731,0 -3.2,-1.432689 -3.2,-3.2 0,-1.767311 1.43269,-3.2 3.2,-3.2 1.76731,0 3.2,1.432689 3.2,3.2 z"
       id="circle439"
       cy="50"
       cx="166.8"
       clip-path="url(#clipPath33)"
       r="3.2" />
  </g>
  <g
     style="font-size:11px;fill:#000000;fill-opacity:1;stroke:#000000;stroke-linecap:butt;stroke-linejoin:round;stroke-opacity:1;font-family:sans-serif"
     id="g441"
     text-rendering="geometricPrecision"
     transform="translate(202,91)"
     font-size="11">
    <line
       style="fill:none"
       id="line443"
       y1="50"
       x2="164"
       clip-path="url(#clipPath33)"
       x1="50"
       y2="50" />
    <line
       style="fill:none"
       id="line445"
       y1="56"
       x2="63"
       clip-path="url(#clipPath33)"
       x1="54"
       y2="44" />
    <line
       style="fill:none"
       id="line447"
       y1="44"
       x2="63"
       clip-path="url(#clipPath33)"
       x1="54"
       y2="56" />
    <line
       style="fill:none"
       id="line449"
       y1="50"
       x2="152"
       clip-path="url(#clipPath33)"
       x1="164"
       y2="44" />
    <line
       style="fill:none"
       id="line451"
       y1="50"
       x2="152"
       clip-path="url(#clipPath33)"
       x1="164"
       y2="56" />
    <circle
       style="stroke:none"
       sodipodi:ry="3.2"
       sodipodi:rx="3.2"
       sodipodi:cy="50"
       sodipodi:cx="166.8"
       d="m 170,50 c 0,1.767311 -1.43269,3.2 -3.2,3.2 -1.76731,0 -3.2,-1.432689 -3.2,-3.2 0,-1.767311 1.43269,-3.2 3.2,-3.2 1.76731,0 3.2,1.432689 3.2,3.2 z"
       id="circle453"
       cy="50"
       cx="166.8"
       clip-path="url(#clipPath33)"
       r="3.2" />
  </g>
  <g
     style="font-size:11px;fill:#000000;fill-opacity:1;stroke:#000000;stroke-linecap:butt;stroke-linejoin:round;stroke-opacity:1;font-family:sans-serif"
     id="g455"
     text-rendering="geometricPrecision"
     transform="translate(884,165)"
     font-size="11">
    <line
       style="fill:none"
       id="line457"
       y1="93"
       x2="50"
       clip-path="url(#clipPath34)"
       x1="50"
       y2="105" />
    <line
       style="fill:none"
       id="line459"
       y1="105"
       x2="162"
       clip-path="url(#clipPath34)"
       x1="50"
       y2="105" />
    <line
       style="fill:none"
       id="line461"
       y1="105"
       x2="162"
       clip-path="url(#clipPath34)"
       x1="162"
       y2="50" />
    <line
       style="fill:none"
       id="line463"
       y1="50"
       x2="118"
       clip-path="url(#clipPath34)"
       x1="162"
       y2="50" />
    <line
       style="fill:none"
       id="line465"
       y1="97"
       x2="56"
       clip-path="url(#clipPath34)"
       x1="44"
       y2="106" />
    <line
       style="fill:none"
       id="line467"
       y1="97"
       x2="44"
       clip-path="url(#clipPath34)"
       x1="56"
       y2="106" />
    <line
       style="fill:none"
       id="line469"
       y1="50"
       x2="130"
       clip-path="url(#clipPath34)"
       x1="118"
       y2="56" />
    <line
       style="fill:none"
       id="line471"
       y1="50"
       x2="130"
       clip-path="url(#clipPath34)"
       x1="118"
       y2="44" />
    <circle
       style="stroke:none"
       sodipodi:ry="3.2"
       sodipodi:rx="3.2"
       sodipodi:cy="50"
       sodipodi:cx="115.2"
       d="m 118.4,50 c 0,1.767311 -1.43269,3.2 -3.2,3.2 -1.76731,0 -3.2,-1.432689 -3.2,-3.2 0,-1.767311 1.43269,-3.2 3.2,-3.2 1.76731,0 3.2,1.432689 3.2,3.2 z"
       id="circle473"
       cy="50"
       cx="115.2"
       clip-path="url(#clipPath34)"
       r="3.2" />
  </g>
  <g
     style="font-size:11px;fill:#000000;fill-opacity:1;stroke:#000000;stroke-linecap:butt;stroke-linejoin:round;stroke-opacity:1;font-family:sans-serif"
     id="g475"
     text-rendering="geometricPrecision"
     transform="translate(581,188)"
     font-size="11">
    <line
       style="fill:none"
       id="line477"
       y1="50"
       x2="164"
       clip-path="url(#clipPath33)"
       x1="50"
       y2="50" />
    <line
       style="fill:none"
       id="line479"
       y1="56"
       x2="63"
       clip-path="url(#clipPath33)"
       x1="54"
       y2="44" />
    <line
       style="fill:none"
       id="line481"
       y1="44"
       x2="63"
       clip-path="url(#clipPath33)"
       x1="54"
       y2="56" />
    <line
       style="fill:none"
       id="line483"
       y1="50"
       x2="152"
       clip-path="url(#clipPath33)"
       x1="164"
       y2="44" />
    <line
       style="fill:none"
       id="line485"
       y1="50"
       x2="152"
       clip-path="url(#clipPath33)"
       x1="164"
       y2="56" />
    <circle
       style="stroke:none"
       sodipodi:ry="3.2"
       sodipodi:rx="3.2"
       sodipodi:cy="50"
       sodipodi:cx="166.8"
       d="m 170,50 c 0,1.767311 -1.43269,3.2 -3.2,3.2 -1.76731,0 -3.2,-1.432689 -3.2,-3.2 0,-1.767311 1.43269,-3.2 3.2,-3.2 1.76731,0 3.2,1.432689 3.2,3.2 z"
       id="circle487"
       cy="50"
       cx="166.8"
       clip-path="url(#clipPath33)"
       r="3.2" />
  </g>
  <g
     style="font-size:11px;fill:#000000;fill-opacity:1;stroke:#000000;stroke-linecap:butt;stroke-linejoin:round;stroke-opacity:1;font-family:sans-serif"
     id="g489"
     text-rendering="geometricPrecision"
     transform="translate(581,157)"
     font-size="11">
    <line
       style="fill:none"
       id="line491"
       y1="50"
       x2="164"
       clip-path="url(#clipPath33)"
       x1="50"
       y2="50" />
    <line
       style="fill:none"
       id="line493"
       y1="56"
       x2="63"
       clip-path="url(#clipPath33)"
       x1="54"
       y2="44" />
    <line
       style="fill:none"
       id="line495"
       y1="44"
       x2="63"
       clip-path="url(#clipPath33)"
       x1="54"
       y2="56" />
    <line
       style="fill:none"
       id="line497"
       y1="50"
       x2="152"
       clip-path="url(#clipPath33)"
       x1="164"
       y2="44" />
    <line
       style="fill:none"
       id="line499"
       y1="50"
       x2="152"
       clip-path="url(#clipPath33)"
       x1="164"
       y2="56" />
    <circle
       style="stroke:none"
       sodipodi:ry="3.2"
       sodipodi:rx="3.2"
       sodipodi:cy="50"
       sodipodi:cx="166.8"
       d="m 170,50 c 0,1.767311 -1.43269,3.2 -3.2,3.2 -1.76731,0 -3.2,-1.432689 -3.2,-3.2 0,-1.767311 1.43269,-3.2 3.2,-3.2 1.76731,0 3.2,1.432689 3.2,3.2 z"
       id="circle501"
       cy="50"
       cx="166.8"
       clip-path="url(#clipPath33)"
       r="3.2" />
  </g>
  <g
     style="font-size:11px;fill:#000000;fill-opacity:1;stroke:#000000;stroke-linecap:butt;stroke-linejoin:round;stroke-opacity:1;font-family:sans-serif"
     id="g503"
     text-rendering="geometricPrecision"
     transform="translate(581,124)"
     font-size="11">
    <line
       style="fill:none"
       id="line505"
       y1="50"
       x2="164"
       clip-path="url(#clipPath33)"
       x1="50"
       y2="50" />
    <line
       style="fill:none"
       id="line507"
       y1="56"
       x2="63"
       clip-path="url(#clipPath33)"
       x1="54"
       y2="44" />
    <line
       style="fill:none"
       id="line509"
       y1="44"
       x2="63"
       clip-path="url(#clipPath33)"
       x1="54"
       y2="56" />
    <line
       style="fill:none"
       id="line511"
       y1="50"
       x2="152"
       clip-path="url(#clipPath33)"
       x1="164"
       y2="44" />
    <line
       style="fill:none"
       id="line513"
       y1="50"
       x2="152"
       clip-path="url(#clipPath33)"
       x1="164"
       y2="56" />
    <circle
       style="stroke:none"
       sodipodi:ry="3.2"
       sodipodi:rx="3.2"
       sodipodi:cy="50"
       sodipodi:cx="166.8"
       d="m 170,50 c 0,1.767311 -1.43269,3.2 -3.2,3.2 -1.76731,0 -3.2,-1.432689 -3.2,-3.2 0,-1.767311 1.43269,-3.2 3.2,-3.2 1.76731,0 3.2,1.432689 3.2,3.2 z"
       id="circle515"
       cy="50"
       cx="166.8"
       clip-path="url(#clipPath33)"
       r="3.2" />
  </g>
  <g
     style="font-size:11px;fill:#000000;fill-opacity:1;stroke:#000000;stroke-linecap:butt;stroke-linejoin:round;stroke-opacity:1;font-family:sans-serif"
     id="g517"
     text-rendering="geometricPrecision"
     transform="translate(581,91)"
     font-size="11">
    <line
       style="fill:none"
       id="line519"
       y1="50"
       x2="164"
       clip-path="url(#clipPath33)"
       x1="50"
       y2="50" />
    <line
       style="fill:none"
       id="line521"
       y1="56"
       x2="63"
       clip-path="url(#clipPath33)"
       x1="54"
       y2="44" />
    <line
       style="fill:none"
       id="line523"
       y1="44"
       x2="63"
       clip-path="url(#clipPath33)"
       x1="54"
       y2="56" />
    <line
       style="fill:none"
       id="line525"
       y1="50"
       x2="152"
       clip-path="url(#clipPath33)"
       x1="164"
       y2="44" />
    <line
       style="fill:none"
       id="line527"
       y1="50"
       x2="152"
       clip-path="url(#clipPath33)"
       x1="164"
       y2="56" />
    <circle
       style="stroke:none"
       sodipodi:ry="3.2"
       sodipodi:rx="3.2"
       sodipodi:cy="50"
       sodipodi:cx="166.8"
       d="m 170,50 c 0,1.767311 -1.43269,3.2 -3.2,3.2 -1.76731,0 -3.2,-1.432689 -3.2,-3.2 0,-1.767311 1.43269,-3.2 3.2,-3.2 1.76731,0 3.2,1.432689 3.2,3.2 z"
       id="circle529"
       cy="50"
       cx="166.8"
       clip-path="url(#clipPath33)"
       r="3.2" />
  </g>
  <g
     style="font-size:11px;fill:#000000;fill-opacity:1;stroke:#000000;stroke-linecap:butt;stroke-linejoin:round;stroke-opacity:1;font-family:sans-serif"
     id="g531"
     text-rendering="geometricPrecision"
     transform="translate(839,208)"
     font-size="11">
    <line
       style="fill:none"
       id="line533"
       y1="50"
       x2="50"
       clip-path="url(#clipPath35)"
       x1="50"
       y2="86" />
    <polygon
       style="fill:#ffffff;stroke:none"
       id="polygon535"
       points="56,62 50,50 44,62 "
       clip-path="url(#clipPath35)" />
    <polygon
       style="fill:none"
       id="polygon537"
       clip-path="url(#clipPath35)"
       points="56,62 50,50 44,62 " />
  </g>
</svg>
